<?xml version="1.0" encoding="UTF-8"?>
<svg width="41px" height="41px" viewBox="0 0 41 41" version="1.1" xmlns="http://www.w3.org/2000/svg" xmlns:xlink="http://www.w3.org/1999/xlink">
    <g stroke="none" stroke-width="1" fill="none" fill-rule="evenodd">
        <g transform="translate(-311.000000, -55.000000)" fill="#000000" fill-rule="nonzero">
            <g transform="translate(311.000000, 55.000000)">
                <g>
                    <circle fill="#ffffff" cx="20" cy="20" r="20"></circle>
                    <path d="M20.5,37.8461538 C30.0800162,37.8461538 37.8461538,30.0800162 37.8461538,20.5 C37.8461538,10.9199838 30.0800162,3.15384615 20.5,3.15384615 C10.9199838,3.15384615 3.15384615,10.9199838 3.15384615,20.5 C3.15384615,30.0800162 10.9199838,37.8461538 20.5,37.8461538 Z M20.5,41 C9.17816263,41 0,31.8218373 0,20.5 C0,9.17816263 9.17816263,0 20.5,0 C31.8218373,0 41,9.17816263 41,20.5 C41,31.8218373 31.8218373,41 20.5,41 Z M11.2049417,25.9359907 C13.7717012,31.0695095 20.0140101,33.1502792 25.1475291,30.5835198 C27.1587029,29.577933 28.7894715,27.9471645 29.7950583,25.9359907 C30.1845412,25.1570246 29.8688029,24.2098095 29.0898368,23.8203263 C28.3108707,23.4308434 27.3636556,23.7465817 26.9741725,24.5255478 C26.2737635,25.9263659 25.1379044,27.062225 23.7370862,27.762634 C20.1614996,29.5504274 15.8136208,28.1011346 14.0258275,24.5255478 C13.6363444,23.7465817 12.6891293,23.4308434 11.9101632,23.8203263 C11.1311971,24.2098095 10.8154587,25.1570246 11.2049417,25.9359907 Z M13.4038462,18.9230769 C14.710212,18.9230769 15.7692308,17.8640581 15.7692308,16.5576923 C15.7692308,15.2513265 14.710212,14.1923077 13.4038462,14.1923077 C12.0974803,14.1923077 11.0384615,15.2513265 11.0384615,16.5576923 C11.0384615,17.8640581 12.0974803,18.9230769 13.4038462,18.9230769 Z M27.5961538,18.9230769 C28.9025197,18.9230769 29.9615385,17.8640581 29.9615385,16.5576923 C29.9615385,15.2513265 28.9025197,14.1923077 27.5961538,14.1923077 C26.289788,14.1923077 25.2307692,15.2513265 25.2307692,16.5576923 C25.2307692,17.8640581 26.289788,18.9230769 27.5961538,18.9230769 Z" id="Shape"></path>
                </g>
            </g>
        </g>
    </g>
</svg>