<?xml version="1.0" encoding="UTF-8"?>
<svg width="40px" height="41px" viewBox="0 0 40 41" version="1.1" xmlns="http://www.w3.org/2000/svg" xmlns:xlink="http://www.w3.org/1999/xlink">
    <g stroke="none" stroke-width="1" fill="none" fill-rule="evenodd">
        <circle fill="#ffffff" cx="20" cy="20" r="20"></circle>
        <g transform="translate(-399.000000, -55.000000)" fill="#000000" fill-rule="nonzero">
            <g transform="translate(399.000000, 54.000000)">
                <g transform="translate(0.000000, 0.594500)">
                    <path d="M20,0.9055 C8.96911075,0.9055 0,9.87475 0,20.9055 C0,31.9365 8.96911075,40.9055 20,40.9055 C31.03089,40.9055 40,31.9365 40,20.9055 C40,9.87475 31.03089,0.9055 20,0.9055 Z M20,3.4055 C29.67979,3.4055 37.5,11.22575 37.5,20.9055 C37.5,30.58525 29.67979,38.4055 20,38.4055 C10.320211,38.4055 2.5,30.58525 2.5,20.9055 C2.5,11.22575 10.320211,3.4055 20,3.4055 Z M12.5,10.9103828 C11.6363175,10.9103828 10.772635,11.1332033 10,11.579328 C8.45473,12.4713283 7.5,14.12125 7.5,15.9055 C7.49481264,16.2370227 7.62153843,16.5570271 7.85229764,16.795112 C8.08305685,17.0331969 8.39894578,17.1698585 8.73046875,17.1750313 C9.06876441,17.1803248 9.39475945,17.0482716 9.63399988,16.8090311 C9.87324032,16.5697907 10.0052936,16.2437957 10,15.9055 C10,15.0105 10.4747617,14.189914 11.25,13.742414 C12.0252383,13.294914 12.9747618,13.294914 13.75,13.742414 C14.5252383,14.189914 15,15.0105 15,15.9055 C14.9936246,16.3562949 15.2304691,16.7756017 15.6198411,17.0028597 C16.009213,17.2301176 16.490787,17.2301176 16.8801589,17.0028597 C17.2695309,16.7756017 17.5063754,16.3562949 17.5,15.9055 C17.5,14.12125 16.54527,12.4713283 15,11.579328 C14.227365,11.1332033 13.3636825,10.9103828 12.5,10.9103828 Z M27.5,10.9103828 C26.6363175,10.9103828 25.772635,11.1332033 25,11.579328 C23.45473,12.4713283 22.5,14.12125 22.5,15.9055 C22.4948126,16.2370227 22.6215384,16.5570271 22.8522976,16.795112 C23.0830569,17.0331969 23.3989458,17.1698585 23.7304687,17.1750313 C24.0687644,17.1803248 24.3947594,17.0482716 24.6339999,16.8090311 C24.8732403,16.5697907 25.0052936,16.2437957 25,15.9055 C25,15.0105 25.4747625,14.189914 26.25,13.742414 C27.0252375,13.294914 27.9747625,13.294914 28.75,13.742414 C29.5252375,14.189914 30,15.0105 30,15.9055 C29.9936246,16.3562949 30.2304691,16.7756017 30.6198411,17.0028597 C31.009213,17.2301176 31.490787,17.2301176 31.8801589,17.0028597 C32.2695309,16.7756017 32.5063754,16.3562949 32.5,15.9055 C32.5,14.12125 31.54527,12.4713283 30,11.579328 C29.227365,11.1332033 28.3636825,10.9103828 27.5,10.9103828 Z M9.99999982,23.4055 C9.99932338,26.9788169 11.9054033,30.2809516 15,32.06761 C18.0940108,33.8539302 21.9059892,33.8539302 25,32.06761 C28.0945967,30.2809516 30.0006766,26.9788169 30.0000002,23.4055 L9.99999982,23.4055 Z" id="Shape"></path>
                </g>
            </g>
        </g>
    </g>
</svg>