<?xml version="1.0" encoding="UTF-8"?>
<svg width="40px" height="40px" viewBox="0 0 40 40" version="1.1" xmlns="http://www.w3.org/2000/svg" xmlns:xlink="http://www.w3.org/1999/xlink">
    <g stroke="none" stroke-width="1" fill="none" fill-rule="evenodd">
        <g transform="translate(-405.000000, -3839.000000)">
            <rect fill="#FFFFFF" x="0" y="0" width="740" height="3921"></rect>
            <g transform="translate(405.000000, 3839.000000)">
                <circle fill="#14B690" cx="20" cy="20" r="20"></circle>
                <g transform="translate(8.000000, 8.000000)" fill="#FFFFFF" fill-rule="nonzero">
                    <g transform="translate(0.000000, 0.594500)">
                        <path d="M5.0001532,0.89254906 C4.1364707,0.89254906 3.2727882,1.11536956 2.5001532,1.56149431 C0.954883204,2.45349456 0.000153203514,4.10341631 0.000153203514,5.88766631 C-0.00503415478,6.21918905 0.121691631,6.5391934 0.352450845,6.77727831 C0.583210058,7.01536321 0.899098985,7.15202483 1.23062195,7.15719756 C1.56891761,7.16249113 1.89491265,7.03043788 2.13415309,6.79119745 C2.37339353,6.55195701 2.50544678,6.22596197 2.5001532,5.88766631 C2.5001532,4.99266631 2.97491495,4.17208031 3.7501532,3.72458031 C4.52539145,3.27708031 5.47491495,3.27708031 6.2501532,3.72458031 C7.02539145,4.17208031 7.5001532,4.99266631 7.5001532,5.88766631 C7.49377784,6.33846121 7.73062232,6.75776802 8.11999427,6.98502596 C8.50936621,7.21228391 8.9909402,7.21228391 9.38031214,6.98502596 C9.76968408,6.75776802 10.0065286,6.33846121 10.0001532,5.88766631 C10.0001532,4.10341631 9.0454232,2.45349456 7.5001532,1.56149431 C6.7275182,1.11536956 5.8638357,0.89254906 5.0001532,0.89254906 Z M20.0001532,0.89254906 C19.1364707,0.89254906 18.2727882,1.11536956 17.5001532,1.56149431 C15.9548832,2.45349456 15.0001532,4.10341631 15.0001532,5.88766631 C14.9949658,6.21918905 15.1216916,6.5391934 15.3524508,6.77727831 C15.5832101,7.01536321 15.899099,7.15202483 16.230622,7.15719756 C16.5689176,7.16249113 16.8949127,7.03043788 17.1341531,6.79119745 C17.3733935,6.55195701 17.5054468,6.22596197 17.5001532,5.88766631 C17.5001532,4.99266631 17.9749157,4.17208031 18.7501532,3.72458031 C19.5253907,3.27708031 20.4749157,3.27708031 21.2501532,3.72458031 C22.0253907,4.17208031 22.5001532,4.99266631 22.5001532,5.88766631 C22.4937778,6.33846121 22.7306223,6.75776802 23.1199943,6.98502596 C23.5093662,7.21228391 23.9909402,7.21228391 24.3803121,6.98502596 C24.7696841,6.75776802 25.0065286,6.33846121 25.0001532,5.88766631 C25.0001532,4.10341631 24.0454232,2.45349456 22.5001532,1.56149431 C21.7275182,1.11536956 20.8638357,0.89254906 20.0001532,0.89254906 Z M2,12.8925491 C1.99932356,16.4658659 3.90540344,19.7680007 7.00000018,21.5546591 C10.0940109,23.3409792 13.9059894,23.3409792 17.0000002,21.5546591 C20.0945969,19.7680007 22.0006768,16.4658659 22.0000004,12.8925491 L2,12.8925491 Z" id="Shape"></path>
                    </g>
                </g>
            </g>
        </g>
    </g>
</svg>