<svg xmlns="http://www.w3.org/2000/svg" width="120" height="120" viewBox="0 0 120 120">
    <g fill="none" fill-rule="evenodd">
        <circle cx="60" cy="60" r="60" fill="#14B690"/>
        <g fill="#FFF" fill-rule="nonzero" transform="translate(33 14)">
            <path d="M26.83 22.785a75.208 75.208 0 0 0 1.143 2.473c.552 1.139 1.644 3.302 2.758 5.002.165.256.462.701.634.938.765-1.084 1.853-2.415 2.809-3.599-.354.691-.754 1.431-1.177 2.143-.59 1-1.24 1.943-1.76 2.533-.34-.4-.758-.957-1.162-1.585-1.012-1.545-2.05-3.527-2.808-5.09a73.573 73.573 0 0 1-.91-1.944c-.109-.24-.192-.43-.248-.559l-.08-.186a3.14 3.14 0 0 0-5.797.041 3.178 3.178 0 0 0 .016 2.414c.019.04.693 1.628 1.718 3.683a65.62 65.62 0 0 0 1.308 2.494c.87 1.564 1.838 3.15 2.934 4.503.554.678 1.134 1.304 1.87 1.862.73.533 1.683 1.112 3.107 1.135 1.268-.011 2.22-.486 2.945-.97 1.267-.878 2.125-1.95 2.96-3.101 1.476-2.094 2.727-4.549 3.49-6.163.484-1.025.772-1.711.793-1.75.034-.081.062-.163.09-.245a3.135 3.135 0 0 0-2.383-4.055 2.475 2.475 0 0 0-.96-.183H26.737l.014.028.08.181z"/>
            <ellipse cx="30.596" cy="10.601" rx="8.829" ry="8.823" transform="rotate(-76.891 30.596 10.6)"/>
            <path d="M15.176 26.655c-1.672 1.972-3.159 4.649-3.176 7.915-.017 2.416.921 5.001 2.837 7.229.897 1.052 1.993 2.044 3.305 2.985.511.367 1.055.726 1.634 1.077a35.04 35.04 0 0 0 3.703 1.94 3.14 3.14 0 0 0 4.157-1.56 3.136 3.136 0 0 0-1.562-4.154 27.044 27.044 0 0 1-3.471-1.86c-1.269-.815-2.19-1.603-2.827-2.317-.052-.058-.104-.116-.152-.173a8.37 8.37 0 0 1-.478-.636c-.674-.989-.852-1.774-.866-2.53 0-.704.192-1.44.57-2.2.239-.485.562-.966.925-1.42v5.678c.128.192.273.39.453.607.576.683 1.588 1.62 3.332 2.666a27.81 27.81 0 0 0 2.837 1.47 3.894 3.894 0 0 1 2.053 2.192 3.893 3.893 0 0 1-.1 3.001 3.936 3.936 0 0 1-3.575 2.302 3.907 3.907 0 0 1-1.622-.352 36.823 36.823 0 0 1-3.378-1.738V85.79a4.851 4.851 0 0 0 4.853 4.85c2.68 0 4.854-2.171 4.854-4.85V55.09H31.3V85.79a4.851 4.851 0 0 0 4.853 4.85c2.68 0 4.853-2.171 4.853-4.85V29.535c-.815 2.159-1.962 4.255-2.849 5.513-.784 1.082-1.734 2.31-3.153 3.294-.71.474-1.821 1.096-3.386 1.111h-.02c-1.62-.028-2.707-.666-3.557-1.287-.888-.672-1.542-1.421-2.015-2-.964-1.188-1.919-2.654-3.012-4.616a65.958 65.958 0 0 1-1.289-2.454 76.366 76.366 0 0 1-1.758-3.765 4.161 4.161 0 0 1-.167-.478A3.902 3.902 0 0 1 19.716 23c-1.569.785-3.102 2.002-4.54 3.655zM8.338 12.978l6.62 5.176.225-.31-7.227-7.054-1.059 3.731L.917 10 0 11.406l7.62 4.991zM14.46 10.304l2.685 6.581.295-.133L15.1 8.537l-2.347 2.295L10.264 5 9 5.648l3.495 6.865zM14.726 21.71L6.76 19l.544 3.185-6.12-1.254L1 22.316l7.522 1.02-.689-2.828 6.836 1.516z"/>
        </g>
    </g>
</svg>
