<svg xmlns="http://www.w3.org/2000/svg" width="120" height="120" viewBox="0 0 120 120">
    <g fill="none" fill-rule="evenodd">
        <path stroke="#979797" d="M-148.5-350.5h739v841h-739z"/>
        <g>
            <g fill="#000" fill-rule="nonzero" transform="translate(32 15)">
                <path d="M26.861 22.45a75.208 75.208 0 0 0 1.143 2.473c.552 1.138 1.645 3.301 2.76 5.001.164.256.46.701.632.938.766-1.084 1.854-2.415 2.81-3.599-.354.69-.754 1.431-1.178 2.143-.59 1-1.238 1.943-1.759 2.533-.34-.4-.758-.957-1.162-1.585-1.012-1.545-2.051-3.527-2.809-5.09a73.572 73.572 0 0 1-.91-1.944c-.108-.24-.191-.43-.248-.559a19.31 19.31 0 0 1-.08-.186 3.14 3.14 0 0 0-5.797.041 3.178 3.178 0 0 0 .017 2.414c.019.04.693 1.628 1.718 3.683a65.62 65.62 0 0 0 1.308 2.494c.87 1.564 1.838 3.15 2.933 4.503.555.677 1.135 1.303 1.87 1.862.73.533 1.684 1.112 3.108 1.135 1.268-.011 2.22-.487 2.945-.971 1.266-.877 2.124-1.95 2.96-3.1 1.476-2.094 2.727-4.55 3.49-6.164.484-1.024.771-1.71.793-1.75.034-.08.062-.163.089-.245a3.135 3.135 0 0 0-2.383-4.055 2.475 2.475 0 0 0-.959-.182H26.767l.015.028.08.181z"/>
                <ellipse cx="29.995" cy="10.787" rx="8.829" ry="8.823" transform="rotate(-76.891 29.995 10.787)"/>
                <path d="M14.78 26.694c-1.673 1.972-3.16 4.65-3.176 7.915-.017 2.416.92 5.001 2.837 7.229.897 1.052 1.993 2.044 3.305 2.986.51.367 1.055.725 1.633 1.077a35.04 35.04 0 0 0 3.703 1.94 3.14 3.14 0 0 0 4.157-1.56 3.136 3.136 0 0 0-1.561-4.155 27.044 27.044 0 0 1-3.472-1.86c-1.268-.815-2.189-1.603-2.827-2.317-.052-.057-.104-.115-.152-.172a8.371 8.371 0 0 1-.477-.637c-.675-.988-.852-1.774-.867-2.53 0-.703.193-1.44.571-2.199.238-.485.562-.967.925-1.42v5.678c.128.191.272.39.452.607.577.682 1.589 1.619 3.333 2.665A27.81 27.81 0 0 0 26 41.411a3.894 3.894 0 0 1 2.053 2.193 3.893 3.893 0 0 1-.1 3 3.936 3.936 0 0 1-3.576 2.302 3.907 3.907 0 0 1-1.621-.351 36.823 36.823 0 0 1-3.378-1.739v39.015a4.851 4.851 0 0 0 4.853 4.849c2.68 0 4.853-2.17 4.853-4.85v-30.7h1.82v30.7a4.851 4.851 0 0 0 4.852 4.85c2.68 0 4.854-2.17 4.854-4.85V29.575c-.815 2.16-1.962 4.255-2.85 5.513-.784 1.082-1.734 2.31-3.153 3.294-.71.474-1.82 1.097-3.385 1.112h-.01l-.011-.001c-1.619-.027-2.706-.666-3.557-1.287-.887-.671-1.542-1.42-2.014-1.999-.964-1.188-1.92-2.654-3.013-4.617a65.958 65.958 0 0 1-1.288-2.453 76.366 76.366 0 0 1-1.759-3.765 4.161 4.161 0 0 1-.166-.479 3.902 3.902 0 0 1-.085-1.853c-1.57.785-3.102 2.002-4.54 3.655zM8.338 13.382l6.62 5.176.225-.31-7.227-7.054-1.059 3.732-5.98-4.522L0 11.81l7.62 4.992zM14.717 10.123l2.684 6.58.295-.133-2.339-8.214-2.347 2.295-2.49-5.833-1.264.648 3.496 6.866zM14.503 21.87l-7.966-2.711.545 3.185-6.12-1.254-.185 1.385 7.522 1.02-.688-2.828 6.835 1.516z"/>
            </g>
            <circle cx="60" cy="60" r="57.5" stroke="#000" stroke-width="5"/>
        </g>
    </g>
</svg>
