<svg xmlns="http://www.w3.org/2000/svg" width="120" height="120" viewBox="0 0 120 120">
    <g fill="none" fill-rule="evenodd">
        <circle cx="60" cy="60" r="60" fill="#14B690"/>
        <circle cx="60" cy="60" r="57.5" stroke="#14B690" stroke-width="5"/>
        <path fill="#FFF" fill-rule="nonzero" d="M49.186 39.427a1.79 1.79 0 0 1 .481-.192c1.86-.457 3.455-1.229 3.467-1.234.152-.25.232-.61.271-.868-.474-.62-.694-1.364-.793-2.003-.175-.014-.406-.261-.653-1.144-.34-1.209.02-1.388.326-1.36a3.102 3.102 0 0 1-.079-1.837c.158-.68.523-1.225.932-1.646.258-.278.551-.52.862-.719.252-.176.532-.328.837-.432.239-.081.493-.134.761-.146.83-.073 1.46.137 1.911.407.675.375.931.871.931.871s1.698.121.955 3.708c.228.08.389.396.125 1.34-.326 1.16-.622 1.223-.8 1.101-.104.594-.319 1.26-.74 1.827.042.286.135.721.328.979 0 0 1.549.698 3.415 1.156.182.045.34.111.48.193a7.837 7.837 0 0 1-6.509 3.46c-2.71 0-5.1-1.373-6.508-3.461zm-11.64 23.615c-.248-.33-.366-.887-.42-1.252.54-.725.813-1.576.946-2.335.228.156.606.074 1.023-1.409.338-1.205.132-1.61-.16-1.711.95-4.586-1.22-4.74-1.22-4.74s-.328-.636-1.19-1.116c-.579-.345-1.383-.613-2.444-.52a3.525 3.525 0 0 0-.973.187h-.001a4.28 4.28 0 0 0-1.07.553 5.748 5.748 0 0 0-1.103.918c-.523.539-.99 1.235-1.192 2.105a3.965 3.965 0 0 0 .1 2.35c-.39-.038-.85.191-.417 1.736.317 1.13.612 1.447.836 1.465.125.816.407 1.768 1.013 2.56-.051.33-.153.79-.347 1.11-.014.007-2.053.994-4.43 1.577a2.27 2.27 0 0 0-.616.246 10.019 10.019 0 0 0 8.322 4.424 10.02 10.02 0 0 0 8.322-4.424 2.259 2.259 0 0 0-.615-.246c-2.385-.585-4.364-1.478-4.364-1.478zM86 80.867C86 91.434 77.406 100 66.806 100s-19.195-8.567-19.195-19.133c0-3.241.81-6.294 2.236-8.968l-5.03-3.287a14.187 14.187 0 0 1-10.613 4.75C26.36 73.362 20 67.022 20 59.202s6.36-14.159 14.204-14.159c3.193 0 6.14 1.051 8.513 2.824l4.833-5.263a11.014 11.014 0 0 1-2.964-7.529C44.586 28.96 49.56 24 55.696 24c6.136 0 11.11 4.959 11.11 11.075 0 6.117-4.974 11.075-11.11 11.075-2.21 0-4.267-.645-5.997-1.754l-4.919 5.356a14.079 14.079 0 0 1 3.628 9.45 14.06 14.06 0 0 1-1.944 7.151l4.874 3.184a19.185 19.185 0 0 1 15.467-7.804C77.406 61.733 86 70.3 86 80.867zM46.486 35.075c0 5.07 4.123 9.18 9.21 9.18 5.086 0 9.21-4.109 9.21-9.18 0-5.07-4.124-9.18-9.21-9.18-5.086 0-9.21 4.11-9.21 9.18zm-.507 24.128c0-6.483-5.271-11.738-11.774-11.738-6.503 0-11.775 5.255-11.775 11.738 0 6.482 5.272 11.737 11.775 11.737s11.774-5.255 11.774-11.737zm36.738 21.664c0-8.76-7.124-15.862-15.912-15.862-8.787 0-15.911 7.102-15.911 15.862s7.125 15.86 15.912 15.86c8.788 0 15.91-7.1 15.91-15.86zm-6.874 6.63a11.11 11.11 0 0 0-1.177-.384.85.85 0 0 1-.083-.025c-.05-.026-2.772-.739-4.02-1.416a7.915 7.915 0 0 1-.479-.328l-.112-.95s3.593.11 5.298-1.626c0 0-2.481-.701-2.036-5.203.447-4.502-.555-8.455-4.186-8.121 0 0-1.573-1.888-4.705-.7-1.075.407-3.96 1.437-3.814 7.676.147 6.238-2.224 6.275-2.224 6.275s1.222 1.772 5.372 1.736l-.018.608-.016.196c-.004.043-.01.086-.02.128-.057.043-.22.16-.452.309-1.249.677-3.972 1.39-4.02 1.416a.381.381 0 0 1-.053.017c-.122.034-.441.113-.964.302l-.202.075a18.8 18.8 0 0 0-1.29.55 2.974 2.974 0 0 0-.88.622 13.423 13.423 0 0 0 11.003 5.712c4.604 0 8.665-2.31 11.084-5.83a3.011 3.011 0 0 0-.757-.504 19.495 19.495 0 0 0-1.25-.534z"/>
    </g>
</svg>
