<svg xmlns="http://www.w3.org/2000/svg" width="120" height="120" viewBox="0 0 120 120">
    <g fill="none" fill-rule="evenodd">
        <g>
            <circle cx="60" cy="60" r="57.5" stroke="#000" stroke-width="5"/>
            <path fill="#000" fill-rule="nonzero" d="M75.683 32.273v-.05A465.375 465.375 0 0 1 78 21.07s-4.768-1.887-17.273-1.987V19C47.87 19 43 20.991 43 20.991c12.467 58.472 6.234 79.123 6.234 79.123h.156a.329.329 0 0 0-.083.206c0 .928 4.942 1.68 11.038 1.68s11.038-.752 11.038-1.68a.286.286 0 0 0-.03-.126h.208s-5.608-17.988 4.112-67.918l.01-.003zm-27.842-.69c-.323.037-.643.075-.953.115l-.233-1.217a7.341 7.341 0 0 1 1.02-.236l-.151-1.249a7.83 7.83 0 0 0-1.106.265 438.1 438.1 0 0 0-1.439-7.024s4.354-1.78 15.848-1.78v.075c11.179.09 15.442 1.776 15.442 1.776a425.399 425.399 0 0 0-1.39 6.549.946.946 0 0 0-.238-.017.975.975 0 0 0-.69-.284c-.33 0-.646.157-.846.283a.932.932 0 0 0-.458-.125c-.472 0-.847.38-1.088.722-.297-.19-.721-.282-1.29-.282-.23 0-.43.016-.55.028a2.623 2.623 0 0 0-1.4-.382c-.663 0-1.238.21-1.489.319-.196-.062-.454-.09-.808-.09-.374 0-.804.032-1.22.063-.436.033-.844.064-1.16.056-.708-.45-1.824-.547-2.653-.547-.271 0-.485.01-.598.017a1.64 1.64 0 0 0-.706-.145c-.522 0-1.05.19-1.31.299-.186-.094-.417-.14-.699-.14-.82 0-1.92.393-2.289.535-.277-.11-.643-.163-1.112-.163-.927 0-1.976.211-2.267.274-.8-.224-1.603-.355-2.399-.395l.17 1.275a10.4 10.4 0 0 1 2.136.383l.075.021.076-.017c.012-.003 1.21-.276 2.21-.276.552 0 .825.083.958.152l.13.068.133-.055c.013-.005 1.318-.537 2.18-.537.325 0 .433.078.45.094l.172.147.188-.093c.006-.003.626-.306 1.198-.306.198 0 .36.035.483.106l.089.051.095-.008c.002 0 .263-.022.637-.022 1.077 0 1.938.175 2.362.48l.083.06.093.004c.353.018.822-.017 1.32-.054.404-.03.823-.062 1.175-.062.445 0 .617.052.68.083l.141.069.14-.071a3.317 3.317 0 0 1 1.337-.31c.437 0 .82.112 1.14.332l.106.074.118-.016c.002 0 .263-.035.585-.035.711 0 .935.16.98.202l.213.611c-3.025-.231-6.41-.36-9.984-.36-4.181 0-8.103.177-11.493.487l.086.512-.063.002.167 1.26.103-.003c3.53 21.79 1.787 27.556 1.787 27.556-.491-10.1-2.64-21.682-4.224-29.105zm26.526-.17l-.194.065a96.053 96.053 0 0 0-2.461-.225l.272-.607c.063-.14.361-.667.663-.667.078 0 .156.035.24.107l.216.186.219-.182c.083-.07.377-.268.63-.268.15 0 .216.07.253.122l.16.225.217-.052.044-.008-.26 1.304zm-5.422 67.504c0 .672-3.807 1.216-8.503 1.216-4.695 0-8.502-.544-8.502-1.216 0-.05.022-.1.063-.148h-.12s.392-1.222.728-3.952c1.115.485 4.31.836 8.079.836 3.366 0 6.274-.28 7.652-.685.344 2.665.74 3.858.74 3.858h-.16c.015.03.023.06.023.091z"/>
        </g>
        <path stroke="#979797" d="M-310.5-172.5h739v631h-739z"/>
    </g>
</svg>
