<svg xmlns="http://www.w3.org/2000/svg" width="120" height="120" viewBox="0 0 120 120">
    <g fill="none" fill-rule="evenodd">
        <g>
            <circle cx="60" cy="60" r="57.5" stroke="#000" stroke-width="5"/>
            <g fill="#000" fill-rule="nonzero">
                <path d="M94.24 61.698a20.003 20.003 0 0 0-1.79-2.004 7.561 7.561 0 0 1-3.579 2.465 6.311 6.311 0 0 1-2.138.426c-2.613 0-3.758-1.996-4.671-3.548a24.36 24.36 0 0 0-1.79-2.802l-.536-.7c-1.133.42-2.32.686-3.526.789-.411 0-.814.053-1.216.053A11.925 11.925 0 0 1 67.693 54 47.878 47.878 0 0 0 61 60.146c.161.133.313.257.438.372.126.116.215.187.305.267.082.078.157.165.223.257.18.232.267.523.242.816-.01.122-.031.244-.063.363-.528 2.235-.814 11.813-.975 19.068 0 .479.063.94.09 1.374.178 3.122.33 5.597.357 6.581v.071h27.28c-.062-2.11-.178-20.566-.438-22.855.133.155.256.318.367.488 2.505 3.69 3.508 6.758 3.731 9.321.59 6.554-4.232 12.727-1.199 14.305.17.089.34.16.51.23l.161.054.34.098h.18l.295.044h.635l.286-.053.18-.089.312-.115h.108a4.28 4.28 0 0 0 .393-.213l.099-.071.277-.204.134-.115.197-.169.143-.15.197-.222.134-.178.188-.24.134-.194.17-.266c0-.062.081-.133.126-.204l.16-.32c.046-.07.081-.141.117-.212.036-.071.116-.222.17-.337.054-.116.063-.125.09-.195.026-.071.152-.329.223-.497l.054-.124c.063-.169.134-.337.197-.515l.08-.221.135-.373.08-.257c0-.124.08-.24.116-.355l.08-.275c0-.115.072-.24.1-.354l.08-.275c0-.125.062-.24.09-.355.026-.115 0-.186.07-.284l.081-.355c.026-.09.047-.182.063-.275 0-.124.063-.248.09-.372.026-.124 0-.16.044-.248.045-.09.063-.293.09-.444.027-.15 0-.115 0-.168l.107-.595v-.186c0-.133 0-.275.063-.408.004-.07.004-.142 0-.213l.053-.354v-.222V78.415v-.195-.257-.168-.249a.712.712 0 0 0 0-.133v-.337a25.059 25.059 0 0 0-4.75-15.378z"/>
                <path d="M87.03 50.91c-.149-.18-.298-.351-.447-.51l-.364-.4c-.902 1.858-2.366 3.443-4.219 4.57.093.12.187.221.261.324C84.82 57.99 85.061 60 86.788 60c.433-.018.86-.104 1.26-.255 1.038-.266 1.948-.842 2.586-1.634.653-.97.364-2.094-.327-3.243 0-.042 0-.085-.065-.12-.402-.63-.858-1.23-1.363-1.795l-.243-.28-.438-.494-.28-.307-.775-.85-.112-.111zM59.064 89.39h.134c0-1.062-.214-4.1-.446-7.834-.437-7.364-1.016-17.408-.784-20.124.004-.212.037-.423.098-.626a7.534 7.534 0 0 1 1.176-1.741 41.61 41.61 0 0 1 5.02-4.796A63.73 63.73 0 0 1 66 52.876a11.244 11.244 0 0 1-1.908-3.333A47.627 47.627 0 0 1 62.924 46a31.45 31.45 0 0 1-4.68 3.751c-.348.21-2.264 1.82-4.056 3.204-2.238 2.607-5.557 4.093-9.04 4.047-.401 0-.811 0-1.222-.052a13.387 13.387 0 0 1-3.307-.775c-.08.104-.152.192-.223.296l-.348.453a23.864 23.864 0 0 0-1.783 2.75c-.35.634-.755 1.237-1.212 1.802a4.267 4.267 0 0 1-3.468 1.74 6.372 6.372 0 0 1-2.13-.417 7.537 7.537 0 0 1-3.567-2.42 19.733 19.733 0 0 0-1.783 1.967c-3.347 4.34-5.14 9.634-5.1 15.067v.278a.85.85 0 0 0 0 .2V80.25l.054.323a2.133 2.133 0 0 0 0 .235c0 .121 0 .252.063.383v.191l.107.583v.192c0 .06.053.27.089.409.036.139 0 .165.053.252.054.087.045.244.08.357.016.091.037.181.063.27l.08.348c0 .096.045.183.072.279.026.095.062.226.089.348l.08.27c0 .113.062.235.098.348l.08.27c0 .113.08.226.116.348l.08.252.134.366.08.217c.063.174.134.34.197.505l.053.122c.071.165.143.33.223.487.08.157.062.131.089.192.027.06.107.226.17.33.062.105.07.14.115.21l.16.287c.045.07.081.14.126.2l.169.261.134.192.187.235.134.174.196.217.142.148.223.2.134.114.276.2.098.07c.127.076.258.145.393.208h.107l.606.105h.151l.286.052h.633l.294-.044h.178l.339-.095.16-.052c.17-.07.34-.14.509-.227.945-.487 1.123-1.41.945-2.611-.089-.55-.21-1.093-.366-1.628-.73-2.61-2.104-6.145-1.783-9.766.223-2.515 1.221-5.527 3.718-9.148.11-.167.233-.327.365-.478-.258 2.245-.374 20.358-.437 22.43h27.717v.009z"/>
                <path d="M29.402 55.368a4.33 4.33 0 0 0-.345.95c-.042.2-.06.405-.056.608 0 1.105.812 2.098 2.95 2.817.4.152.827.24 1.26.257 1.755 0 1.97-2.038 4.528-5.137l.065-.103.196-.23c-1.867-1.109-3.353-2.679-4.285-4.53l-.327.368c-.392.454-.85.95-1.316 1.464l-.56.625-.56.642c-.271.317-.523.651-.766.976-.305.408-.567.84-.784 1.293zM66.132 48.39a8.698 8.698 0 0 0 1.566 2.578l.217.232c.064.075.134.147.208.214l.28.267.227.206.298.24.254.19c.1.077.208.145.326.223l.262.163c.113.073.231.139.353.198.088.053.178.102.272.146l.38.18.28.12.417.155.29.094c.153.052.307.086.461.13l.272.068c.199.051.407.086.606.12h.163c.267.042.535.07.805.086h1.738c4.276-.177 7.837-3.173 8.535-7.181 1.15-6.288.507-9.243.2-10.308a6.541 6.541 0 0 0-.263-.739l-.109-.24a7.706 7.706 0 0 0-.226-.473l-.154-.266c-.081-.137-.163-.275-.253-.404l-.19-.274c-.091-.12-.181-.25-.281-.37l-.226-.258c-.1-.111-.2-.231-.308-.335a3.375 3.375 0 0 0-.253-.249c-.11-.103-.218-.214-.335-.309l-.28-.232-.363-.283-.299-.215c-.126-.086-.253-.172-.389-.25l-.317-.188c-.135-.086-.271-.155-.416-.232l-.308-.095-.443-.197-.335-.146-.47-.172-.345-.112-.497-.137-.335-.086-.552-.112a3.256 3.256 0 0 0-.308-.051L75.608 30h-2c-4.888.395-9.15 4.003-9.576 8.29-.082 1.09-.181 4.097 2.1 10.1zM34.686 35.85a6.126 6.126 0 0 0-.244.717c-.308 1.057-.906 3.982.19 10.233.424 2.404 1.929 4.517 4.128 5.8a10.504 10.504 0 0 0 4.426 1.338c.317 0 .634 0 .905.043.272.043.408 0 .607 0h.299c.271 0 .534-.051.796-.094a.96.96 0 0 0 .163 0l.616-.11.262-.077c.16-.035.317-.078.471-.128l.28-.094c.146-.051.281-.094.417-.154l.29-.119.38-.18.272-.136.353-.204.262-.162.326-.222.244-.18.308-.246.227-.197c.1-.085.19-.179.28-.272l.208-.205.263-.29a8.674 8.674 0 0 0 1.52-2.559c.3-.784.553-1.518.78-2.2.298-.93.533-1.765.723-2.516.48-1.75.654-3.561.516-5.364-.223-1.878-1.102-3.632-2.498-4.989-1.862-1.856-4.38-3.009-7.08-3.24-.316 0-.624-.043-.904-.043h-1.114c-.226 0-.443 0-.66.077l-.327.06-.534.102-.344.085-.488.137-.353.119-.462.162-.344.145-.435.196-.335.17-.407.222-.326.188c-.127.085-.253.162-.38.256l-.308.213-.353.273-.29.23-.325.307-.263.248-.299.332-.235.264-.272.359-.199.273-.244.4-.163.273-.217.452c-.028.145-.073.222-.109.307z"/>
            </g>
        </g>
        <path stroke="#979797" d="M-148.5-360.5h739v828h-739z"/>
    </g>
</svg>
