<svg xmlns="http://www.w3.org/2000/svg" width="120" height="120" viewBox="0 0 120 120">
    <g fill="none" fill-rule="evenodd">
        <circle cx="60" cy="60" r="60" fill="#14B690"/>
        <path fill="#FFF" fill-rule="nonzero" d="M62.366 50.223a10.537 10.537 0 0 1 4.246-3.188c-1.911-1.275-3.114-3.471-3.114-5.88A7.132 7.132 0 0 1 70.645 34a7.132 7.132 0 0 1 7.148 7.155c0 2.48-1.203 4.605-3.114 5.88a10.537 10.537 0 0 1 4.246 3.188c-3.75.921-6.864 3.614-8.28 7.227-1.415-3.543-4.529-6.306-8.28-7.227zM48.424 57.45c.566-1.488 1.486-2.834 2.69-4.039 1.556-1.558 3.538-2.62 5.59-3.117a10.537 10.537 0 0 0-4.246-3.188c1.91-1.275 3.114-3.471 3.114-5.88a7.132 7.132 0 0 0-7.148-7.155 7.132 7.132 0 0 0-7.147 7.155c0 2.48 1.203 4.605 3.113 5.88a10.537 10.537 0 0 0-4.246 3.188c3.751.85 6.865 3.613 8.28 7.156zm38.073 11.335c2.336-1.63 3.822-4.322 3.68-7.368-.212-4.25-3.75-7.793-8.067-7.935h-.354a8.4 8.4 0 0 0-8.421 8.43c0 2.905 1.415 5.456 3.68 6.944-2.76 1.133-5.025 3.258-6.37 5.95-1.344-2.692-3.538-4.817-6.369-5.95 2.336-1.63 3.822-4.322 3.68-7.368-.212-4.25-3.75-7.793-8.067-7.935h-.354a8.4 8.4 0 0 0-8.422 8.43c0 2.905 1.416 5.456 3.68 6.943-2.76 1.134-5.024 3.26-6.369 5.951-1.344-2.692-3.538-4.817-6.369-5.95 2.335-1.63 3.822-4.322 3.68-7.368-.212-4.251-3.75-7.793-8.068-7.935h-.353a8.4 8.4 0 0 0-8.422 8.43c0 2.905 1.416 5.456 3.68 6.943C28.114 70.627 25 75.02 25 80.12v4.18c0 .92.778 1.7 1.698 1.7H92.3c.92 0 1.699-.78 1.699-1.7v-4.18c.07-5.1-3.043-9.493-7.502-11.335z"/>
    </g>
</svg>
