<svg xmlns="http://www.w3.org/2000/svg" width="120" height="120" viewBox="0 0 120 120">
    <g fill="none" fill-rule="evenodd">
        <circle cx="60" cy="60" r="60" fill="#14B690"/>
        <g fill="#FFF" fill-rule="nonzero" transform="translate(22 16)">
            <ellipse cx="37.597" cy="9.628" rx="9.689" ry="9.628"/>
            <path d="M23.38 68.933V56.068h-8.129zM51.863 69.083V56.068h8.13z"/>
            <path d="M73.33 35.938l-9.657-6.767c-3.707-2.596-5.18-3.55-7.011-4.744-2.26-1.514-5.645-3.13-9.652-3.216-1.247-.026-5.905-.035-8.5-.037h-1.776c-2.596.002-7.252.01-8.498.037-4.007.084-7.394 1.701-9.652 3.216-1.832 1.193-3.303 2.147-7.012 4.744l-9.657 6.767a4.47 4.47 0 0 0-1.105 6.23l8.705 12.424a4.518 4.518 0 0 0 3.711 1.923c.891 0 1.79-.262 2.576-.805a4.466 4.466 0 0 0 1.126-6.244l-6.14-8.764c3.277-2.295 8.07-5.651 11.485-8.045.772-.375 1.491-.294 1.957-.04 1.128.617 1.08 1.597 1.133 1.92l.629 52.787h22.906c.195 0 .524-17.596.985-52.787.051-.323.005-1.302 1.133-1.92.467-.253 1.187-.335 1.956.04 3.415 2.394 8.21 5.75 11.484 8.045l-6.136 8.764a4.465 4.465 0 0 0 1.124 6.244 4.52 4.52 0 0 0 2.576.805 4.521 4.521 0 0 0 3.71-1.923l8.704-12.424a4.466 4.466 0 0 0-1.105-6.23z"/>
        </g>
    </g>
</svg>
