<svg xmlns="http://www.w3.org/2000/svg" width="120" height="120" viewBox="0 0 120 120">
    <g fill="none" fill-rule="evenodd">
        <circle cx="60" cy="60" r="60" fill="#14B690"/>
        <g fill="#FFF" fill-rule="nonzero" transform="translate(29 33)">
            <path d="M13 1c2.722 0 5 2.215 5 5s-2.215 5-5 5a4.97 4.97 0 0 1-5-5c0-2.785 2.215-5 5-5zM9 1.644S4.875-1.699 3.25 1.15c0 0-.875 1.486-.938 4.148C2.25 7.959 1.5 9.444 1.5 9.444s-.438 1.053-1.5.929v.495s2.375.557 3.75-.619c1.375-1.176 1.813-2.538 1.813-2.538s.625-1.548 1-3.714c.375-2.167 1.312-1.981 1.312-1.981s.563 0 .688.247L9 1.644zM60.478 14.355v19.42h-3.686a4.047 4.047 0 0 0 1.164-2.84V17c0-2.194-1.81-4-4.01-4-2.198 0-3.944 1.806-3.944 4v11.806l-11.769-.838c-.84-.065-1.681.193-2.263.774-.582.58-.97 1.355-.97 2.193v19.097A2.963 2.963 0 0 0 37.975 53a2.963 2.963 0 0 0 2.974-2.968V34.097l2.134.129v18.387h2.651V36.419H60.35v16.258H63V14.355h-2.522z"/>
            <path d="M17 21h30v3H17z"/>
            <circle cx="51" cy="6" r="5"/>
            <path d="M14.712 25.774c-1.182 0-1.38-.58-1.38-.903V17c0-2.194-1.838-4-4.071-4-2.233 0-4.072 1.806-4.072 4v16.774H2.693v-19.42H0v38.323h2.693V36.42h14.843v16.258h2.693v-18.58l2.167-.065v16c0 1.678 1.38 2.968 3.021 2.968 1.708 0 3.022-1.355 3.022-2.968V33.903H31c-.394-7.42-12.216-8.129-16.288-8.129z"/>
        </g>
    </g>
</svg>
