<svg xmlns="http://www.w3.org/2000/svg" width="120" height="120" viewBox="0 0 120 120">
    <g fill="none" fill-rule="evenodd">
        <path stroke="#979797" d="M-309.5-540.5h739v841h-739z"/>
        <g>
            <circle cx="60" cy="60" r="57.5" stroke="#000" stroke-width="5"/>
            <path fill="#000" fill-rule="nonzero" d="M75.525 35c-7.178 0-13.337 4.337-16.028 10.532C56.807 39.337 50.657 35 43.48 35 33.823 35 26 42.835 26 52.5c0 5.758 2.823 10.826 7.104 14.015L59.497 87l26.4-20.485C90.181 63.325 93 58.258 93 52.5 93 42.836 85.172 35 75.525 35zm.532 28.295h-9.23l-2.562-6.937-5.626 17.339-5.652-12.677-.565 1.615h-9.478v-2.642h7.606l2.14-6.119 5.56 12.47 5.853-18.039 4.562 12.348h7.393v2.642h-.001z"/>
        </g>
    </g>
</svg>
