<svg xmlns="http://www.w3.org/2000/svg" width="120" height="120" viewBox="0 0 120 120">
    <g fill="none" fill-rule="evenodd">
        <circle cx="60" cy="60" r="60" fill="#14B690"/>
        <circle cx="60" cy="60" r="57.5" stroke="#14B690" stroke-width="5"/>
        <g fill="#FFF" fill-rule="nonzero">
            <path d="M70.372 26c.054.438.137.93.273 1.479.134.539.251 1.04.355 1.521-1.104-.053-4.304-.398-6-2.466 2.556-.19 4.553-.43 5.372-.534zM67.72 23.116c.53-.079.917-.116 1.219-.116.904 0 .947.199 1.022 1.75.011.214.022.45.039.709-.59.102-2.027.332-3.916.541A7.89 7.89 0 0 0 65 23.374a30.753 30.753 0 0 0 2.72-.258z"/>
            <path d="M64.745 24A7.186 7.186 0 0 1 66 26.67a66.879 66.879 0 0 1-6 .33v-2.942A85.118 85.118 0 0 0 64.745 24zM58 24.055c-.03.528-.083 1.616-.113 2.945A86.668 86.668 0 0 1 51 26.672 6.794 6.794 0 0 1 52.41 24c1.373.05 2.734.066 3.871.066.644 0 1.23-.004 1.719-.011zM45.634 26c.815.106 2.786.344 5.366.534-1.684 2.035-4.836 2.403-6 2.466.106-.48.223-.982.358-1.52.137-.55.22-1.042.276-1.48zM47.065 23c.303 0 .69.037 1.223.116.813.12 1.752.203 2.712.258A7.874 7.874 0 0 0 49.911 26 64.499 64.499 0 0 1 46 25.457c.017-.259.03-.496.04-.71.075-1.548.12-1.747 1.025-1.747zM71.685 39.814a262.153 262.153 0 0 1-.51 3.985c-.837 6.326-2.237 16.913-1.928 23.378.313 6.542-.207 17.16-.667 26.53-.1 2.04-.197 4.028-.283 5.911-.529.12-1.855.382-3.407.382-1.266 0-2.401-.172-3.376-.512.085-1.947.622-14.733.445-26.302-.174-11.453-.752-15.985-1.03-18.163-.03-.233-.055-.441-.078-.633-.046-.371-.13-1.043-.24-1.907-.468-3.677-1.44-11.328-1.44-13.214-.012-.473-.116-1.269-.67-1.269-.558 0-.66.796-.67 1.277 0 1.876-.974 9.527-1.44 13.203-.111.865-.196 1.538-.241 1.91-.022.19-.05.399-.079.633-.278 2.177-.855 6.708-1.03 18.163-.177 11.569.36 24.354.445 26.301-.975.34-2.109.512-3.377.512-1.546 0-2.876-.262-3.405-.381-.086-1.88-.183-3.865-.283-5.901-.46-9.373-.981-19.997-.667-26.54.309-6.466-1.092-17.052-1.93-23.379-.212-1.6-.396-2.982-.51-3.985-.449-3.93-.408-6.282.066-9.305 1.075-.044 4.636-.43 6.385-3.508 1.595.134 3.397.233 5.27.245-.02 1.633 0 3.52.131 5.136l.036.447.427-.149c.024-.008 2.437-.875 2.437-3.326v-2.11a66.2 66.2 0 0 0 5.12-.242c1.778 3.128 5.427 3.475 6.435 3.51.472 3.021.514 5.373.064 9.303z"/>
            <path d="M57.928 24l-.781.017c-.067 1.057-.279 4.909-.027 7.983.706-.318 1.88-1.049 1.88-2.407V24.02c-.662-.01-1.065-.021-1.072-.021zm.014 1.684c-.308 0-.556-.199-.556-.443 0-.245.248-.443.556-.443.307 0 .555.198.555.443 0 .243-.248.443-.555.443z"/>
        </g>
    </g>
</svg>
