<svg xmlns="http://www.w3.org/2000/svg" width="120" height="120" viewBox="0 0 120 120">
    <g fill="none" fill-rule="evenodd">
        <circle cx="60" cy="60" r="60" fill="#14B690"/>
        <g fill="#FFF" fill-rule="nonzero" transform="translate(40 28)">
            <circle cx="20.5" cy="6.5" r="6.5"/>
            <path d="M39.387 32.332c-2.908-1.33-8.898-3.221-10.534-6.005C26.668 22.608 24.8 13.952 17.123 14c-3.352.022-8.809 5.529-12.66 8.013-1.793 1.156-1.735 4.264-2.052 6.122l-1.244 7.298c-.414 2.42 1.635 3.517 3.649 2.434 1.103-.592 1.585-2.096 1.778-3.227.498-2.917 1.162-5.194 1.66-8.11l3.537-2.854C10.59 30.816 9.503 35.036 8.4 44.66c-.326 2.848-.72 5.766-1.396 6.642-2.186 2.831-3.858 5.615-6.075 8.422-3.138 3.973 2.447 7.025 5.32 3.388l5.893-7.463c2.785-3.527 2.665-9.28 3.391-13.592l6.608 14.18 3.06 6.569c1.904 4.087 7.773 1.97 5.773-2.32-2.838-6.091-5.1-12.183-7.939-18.273-.886-1.903-2.275-3.754-1.973-5.823l1.486-10.166c.819 1.393 1.532 3.3 2.631 4.479.78 1.329 3.724 2.164 5.07 2.779l6.319 2.887c3.373 1.543 6.4-2.402 2.819-4.038z"/>
        </g>
    </g>
</svg>
