<svg xmlns="http://www.w3.org/2000/svg" width="120" height="120" viewBox="0 0 120 120">
    <g fill="none" fill-rule="evenodd">
        <path stroke="#979797" d="M-229.5-191.5v696h739v-696h-739z"/>
        <g>
            <circle cx="60" cy="60" r="57.5" stroke="#000" stroke-width="5"/>
            <g fill="#000" fill-rule="nonzero" transform="translate(37 23)">
                <path d="M62 65c.4.2.5.7.3 1M33.075 74c-1.83 0-3.493-1.268-3.909-3.212l-3.742-17.326-12.14-11.41c-1.58-1.521-1.746-4.057-.25-5.747 1.497-1.606 3.992-1.775 5.655-.254l13.97 13.1 4.24 19.862c.5 2.198-.914 4.31-3.076 4.818a1.96 1.96 0 0 1-.748.169z"/>
                <path d="M18.876 46c-.49 0-.898-.084-1.388-.169-3.186-.758-5.064-4.045-4.33-7.332l4.248-17.868c.735-3.287 3.92-5.226 7.106-4.467 3.186.759 5.064 4.046 4.33 7.333l-4.248 17.867C23.94 44.062 21.49 46 18.876 46z"/>
                <path d="M8.1 72c-.344 0-.688-.084-1.031-.168-2.234-.59-3.523-2.776-2.921-4.963l12.715-47.864c.601-2.188 2.835-3.45 5.068-2.86 2.234.588 3.523 2.775 2.921 4.963l-12.8 47.864C11.621 70.738 9.903 72 8.1 72z"/>
                <circle cx="27" cy="7" r="7"/>
                <path d="M18.786 15L4.624 20.844.103 37.189c-.427 1.609.512 3.303 2.133 3.726.256.085.511.085.853.085 1.365 0 2.56-.932 2.986-2.287l3.668-13.465 16.721-6.776c.683-.338 1.28-.847 1.536-1.524L18.786 15z"/>
                <path d="M49 26.087H37.167l-7.084-9.362L22 15c0 .575.167 1.15.583 1.643L34.167 32H49c1.667 0 3-1.314 3-2.957 0-1.642-1.333-2.956-3-2.956z"/>
            </g>
        </g>
    </g>
</svg>
