<svg xmlns="http://www.w3.org/2000/svg" width="120" height="120" viewBox="0 0 120 120">
    <g fill="none" fill-rule="evenodd">
        <path stroke="#979797" d="M-141.5-180.5h739v1049h-739z"/>
        <g>
            <circle cx="60" cy="60" r="57.5" stroke="#000" stroke-width="5"/>
            <g fill="#000" fill-rule="nonzero">
                <path d="M49.763 44.608a2.547 2.547 0 0 1 1.842-.79c.693 0 1.354.292 1.853.812.13.13.249.27.357.39.087.098.173.195.25.271.194.206.4.401.595.585a10.545 10.545 0 0 0 2.33 1.593V41H27.717l4.247 4.248L15 62.206l8.157 8.16L33.58 59.94l4.474 4.475L27.63 74.841 35.79 83l16.964-16.969L57 70.279V52.952l-.022-.01a1.498 1.498 0 0 1-.325-.12 3.472 3.472 0 0 1-.249-.087c-.14-.054-.281-.108-.411-.151a8.218 8.218 0 0 1-1.116-.488 14.937 14.937 0 0 1-1.961-1.149 14.41 14.41 0 0 1-1.733-1.365c-.25-.228-.51-.477-.791-.78l-.087-.098c-.206-.216-.444-.466-.66-.747-.51-.683-.586-1.333-.553-1.756.021-.596.27-1.16.671-1.593zM106 81h-.01c-1.272-.033-6.176-.154-7.362-.187-.118-.01-.118-.099-.128-.164 0-.077-.01-.143-.01-.22-.022-.319-.183-2.603-.236-3.438 0-.044 0-.384-.043-.384a647.77 647.77 0 0 1-3.889-.286c-.085-.01-.064-.11-.074-.187-.054-.812-.257-3.789-.268-3.866 0-.033-.032-.022-.064-.022-1.303-.099-2.585-.186-3.878-.285-.021 0-.021-.022-.021-.055-.032-.396-.214-3.087-.267-3.855 0-.055-.011-.1-.011-.154 0 0-3.729-.275-3.846-.286-.022 0-.097 0-.107-.01-.096-.1-4.413-4.526-4.434-4.57-.588.242-1.111.418-1.72.56a12.444 12.444 0 0 1-7.832-.615c-2.65-1.12-4.882-3.185-6.26-5.766-1.464-2.757-1.892-5.997-1.25-9.061l.01-.022c.3-1.285.737-2.505 1.389-3.658 1.656-2.943 4.434-5.151 7.628-6.04a11.173 11.173 0 0 1-1.121 3.69 10.85 10.85 0 0 1-1.069 1.713c-.16.22-.331.429-.513.626-.181.209-.395.407-.566.615a2.239 2.239 0 0 0-.363 2.021c.235.736.855 1.307 1.592 1.45.406.077.833.033 1.218-.132.374-.154.651-.44.919-.736a17.103 17.103 0 0 0 1.506-1.9c1.539-2.284 2.447-5.008 2.618-7.776 1.549.12 3.098.538 4.508 1.22 2.906 1.416 5.214 3.975 6.379 7.05a13.429 13.429 0 0 1 .021 9.314l17.372 17.86.097 3.91c.02 1.219.053 2.427.085 3.646zM61 51h0zM59 50c.05 0 .1 0 .15.05-.05-.05-.1-.05-.15-.05z"/>
                <path d="M76.989 37.324a14.51 14.51 0 0 1-2.382 8.111c-.155.231-.32.462-.485.683-.144.209-.31.44-.486.616-.132.132-.242.286-.375.43-.132.142-.264.285-.397.417-.198.198-.43.397-.716.408-.486.077-.982-.243-1.125-.716-.287-.682.408-1.2.794-1.64 2.117-2.377 3.209-5.558 3.066-8.716a12.44 12.44 0 0 0-3.485-8.09 12.448 12.448 0 0 0-6.871-3.588 12.55 12.55 0 0 0-7.488 1.079 12.407 12.407 0 0 0-5.801 5.899c-.993 2.113-1.346 4.501-1.059 6.824h-2.095c0-.044-.011-.066-.011-.077a17.328 17.328 0 0 1-.066-1.068c-.022-.715.01-1.43.099-2.146a14.483 14.483 0 0 1 3.54-7.891 14.498 14.498 0 0 1 6.694-4.26 14.783 14.783 0 0 1 7.588-.198c2.57.617 4.94 1.937 6.804 3.797a14.492 14.492 0 0 1 4.08 7.914c.11.704.177 1.42.188 2.135-.011.033-.011.055-.011.077zM62.874 52c-.539 0-1.066-.022-1.604-.078h-.012c-.149 0-.31-.044-.458-.056a53.54 53.54 0 0 0-.493-.066c-.32-.045-.641-.123-.962-.19h-.012c-.31-.077-.63-.144-.94-.244-.01 0-.022-.011-.022-.011h-.023a1.15 1.15 0 0 1-.184-.056c-.057 0-.148-.056-.206-.067-.08-.022-.16-.056-.24-.089-.172-.067-.333-.133-.505-.19a7.838 7.838 0 0 1-.996-.422 15.384 15.384 0 0 1-3.53-2.326 15.29 15.29 0 0 1-.756-.723c-.23-.234-.47-.468-.665-.735-.171-.222-.286-.478-.263-.757.023-.244.126-.49.298-.667.206-.212.481-.323.779-.323.32 0 .596.134.814.356.217.223.412.456.63.679.229.234.47.456.722.679.492.434 1.03.834 1.592 1.18A13.395 13.395 0 0 0 63 49.907c-.115.69-.138 1.39-.126 2.092z"/>
            </g>
        </g>
    </g>
</svg>
