<svg xmlns="http://www.w3.org/2000/svg" width="41" height="41" viewBox="0 0 41 41">
    <path fill="#000" fill-rule="nonzero" d="M20.5 37.846c9.58 0 17.346-7.766 17.346-17.346S30.08 3.154 20.5 3.154 3.154 10.92 3.154 20.5 10.92 37.846 20.5 37.846zm0 3.154C9.178 41 0 31.822 0 20.5S9.178 0 20.5 0 41 9.178 41 20.5 31.822 41 20.5 41zm-9.295-15.064c2.567 5.134 8.809 7.214 13.943 4.648a10.392 10.392 0 0 0 4.647-4.648 1.577 1.577 0 0 0-2.82-1.41 7.238 7.238 0 0 1-12.95 0 1.577 1.577 0 0 0-2.82 1.41zm2.199-7.013a2.365 2.365 0 1 0 0-4.73 2.365 2.365 0 0 0 0 4.73zm14.192 0a2.365 2.365 0 1 0 0-4.73 2.365 2.365 0 0 0 0 4.73z"/>
</svg>
