<svg xmlns="http://www.w3.org/2000/svg" width="40" height="41" viewBox="0 0 40 41">
    <path fill="#000" fill-rule="nonzero" d="M20 .5C8.97.5 0 9.47 0 20.5c0 11.031 8.97 20 20 20s20-8.969 20-20c0-11.03-8.97-20-20-20zM20 3c9.68 0 17.5 7.82 17.5 17.5S29.68 38 20 38 2.5 30.18 2.5 20.5 10.32 3 20 3zm-7.5 7.505a4.997 4.997 0 0 0-5 4.995 1.25 1.25 0 1 0 2.5 0c0-.895.475-1.716 1.25-2.163a2.496 2.496 0 0 1 2.5 0A2.492 2.492 0 0 1 15 15.5a1.25 1.25 0 1 0 2.5 0 4.998 4.998 0 0 0-5-4.995zm15 0a4.997 4.997 0 0 0-5 4.995 1.25 1.25 0 1 0 2.5 0c0-.895.475-1.716 1.25-2.163a2.496 2.496 0 0 1 2.5 0A2.492 2.492 0 0 1 30 15.5a1.25 1.25 0 1 0 2.5 0 4.998 4.998 0 0 0-5-4.995zM10 23a10 10 0 1 0 20 0H10z"/>
</svg>
