<svg xmlns="http://www.w3.org/2000/svg" width="120" height="120" viewBox="0 0 120 120">
    <g fill="none" fill-rule="evenodd">
        <circle cx="60" cy="60" r="60" fill="#14B690"/>
        <circle cx="60" cy="60" r="57.5" stroke="#14B690" stroke-width="5"/>
        <g fill="#FFF" fill-rule="nonzero">
            <path d="M38.511 40.016c-.722.135-1.145 7.508-1.147 7.55-.044.692-7.826 3.932-8.211 3.548-2.728-2.705-5.452-4.504-5.985-4.083-.78.613 1.413 7.576 1.418 7.583.157.38-.468 2.296-.51 2.758-.157 1.77-.088 3.531.488 5.233 2.884 8.515 10.395 8.648 17.577 5.526 9.958-4.326 10.578-16.148 1.146-21.512 0 .001-2.66-6.995-4.776-6.603z"/>
            <path d="M47.434 88h-5.096c-.113-1.907.686-3.867.343-5.754-.21-1.145-.98-2.437-2.42-2.69A37.323 37.323 0 0 0 37 79.1c-1.25.109-2.43.307-3.264.455-1.439.254-2.208 1.546-2.418 2.691-.343 1.887.456 3.847.343 5.754h-5.096c-.289-1.557.104-3.573-.006-4.62-.473-4.548-1.143-9.997.407-14.499 3.192 2.9 8.165 3.002 13.32 1.267 2.49-.838 4.667-1.703 6.287-3.148 2.134 4.7 1.384 11.43.867 16.38-.108 1.047.284 3.063-.005 4.62zM74.793 25c1.163 0 .826 2.577.849 2.97.194 3.415-.98 6.765-.836 10.174.039.73 11.472 4.362 11.608 4.118 2.325-4.225 6.347-11.778 8.648-11.535 1.543.163 2.468 3.11 2.657 4.663 1.122 9.208-1.13 18.355-6.499 24.526-3.379 3.883-7.82 6.532-13.18 6.021-6.565-.624-16.249-3.207-18.462-10.467-1.806-5.92.968-13.144 3.519-18.426C65.587 31.895 71.397 25 74.793 25z"/>
            <path d="M96 88H83.04c-.029-.52.242-1.085.446-1.563.546-1.284 1.545-2.418 1.662-3.847.135-1.653-.838-3.278-1.686-4.628-.48-.767-3.243-.098-3.978.05-1.58.32-3.248.936-4.877.627-1.89-.358-3.89-1.341-5.84-1.25-1.244.058-1.49 1.192-1.758 2.305-.21.857-.177 1.722.002 2.585.13.618 1.992 4.208 1.87 5.721H56c.057-1.412 1.583-3.745 1.987-5.535.45-1.988.15-3.914.376-5.911.176-1.548.49-3.087 1.009-4.56 1.125-3.202 3.143-5.555 5.42-7.989.098-.101 3.178 1.368 3.61 1.52 3.756 1.324 7.703 2.658 11.745 2.234 1.131-.117 2.24-.381 3.342-.661 1.254-.319 2.523-.654 3.684-1.236.267-.134 2.56-1.427 2.326-1.777l1.49 2.23c1.4 2.412 2.708 4.605 2.856 7.507.113 2.237-.17 4.534.268 6.745.444 2.24 1.479 5.12 1.887 7.432z"/>
        </g>
    </g>
</svg>
