<svg xmlns="http://www.w3.org/2000/svg" width="120" height="120" viewBox="0 0 120 120">
    <g fill="none" fill-rule="evenodd">
        <path stroke="#979797" d="M-471.5-559.5h739v1049h-739z"/>
        <g>
            <circle cx="60" cy="60" r="57.5" stroke="#000" stroke-width="5"/>
            <g fill="#000" fill-rule="nonzero">
                <path d="M60 39.533c0-4.46-3.907-8.552-8.688-9.377-4.782-.824-9.804 1.68-11.388 5.854-.4 1.072-1.297 4.062-.754 10.643.334 4.197 3.575 7.59 7.775 8.14 4.13.899 8.332-1.186 10.09-5.007 2.799-6.004 2.972-9.114 2.965-10.253z"/>
                <path d="M49.254 79.106C47.51 78 45.33 76.28 44.836 74.311c-.815-3.346 1.103-6.753 4.33-7.69l.523-.121a7.56 7.56 0 0 1 .125-.848 8.168 8.168 0 0 1 2.518-4.341 10.79 10.79 0 0 1 4.058-2.334 11.135 11.135 0 0 1 3.38-.522c.411.002.822.027 1.23.075a4.408 4.408 0 0 0-.663-.947c-1.473-1.56-5.015-2.53-7.025-2.583a10.26 10.26 0 0 1-6.12 1.59A10.288 10.288 0 0 1 41.065 55c-2.025.053-5.567 1.038-7.062 2.621C30.196 61.681 27.17 81.508 27 88h19.883c.331-3.932 1.134-6.818 2.46-8.848a.728.728 0 0 0-.089-.046zM94 88c-.141-5.383-1.657-23.665-4.458-27.806-1.686-2.483-5.52-4.126-8.12-4.194a10.038 10.038 0 0 1-5.892 1.514c-2.069.118-4.124-.41-5.891-1.514-2.229.053-4.094 1.257-5.639 3.142 1.04.351 2.022.862 2.912 1.514a8.447 8.447 0 0 1 3.336 4.996c.059.277.101.558.126.84l.543.13c3.245.942 5.17 4.34 4.346 7.676-.49 1.968-2.69 3.686-4.458 4.792l-.119.045c1.338 2.052 2.14 4.944 2.482 8.865H94z"/>
                <path d="M70.631 55.932c2.633 1.165 3.303 1.241 5.363.868a9.362 9.362 0 0 0 4.723-2.284c3.198-.441 9.379-3.099 11.283-4.858-4.09-1.88-8.598-9.563-9.766-12.273-1.676-3.766-5.603-5.922-9.595-5.27-5.756.808-8.977 4.805-8.843 9 .141 4.523-.253 13.706-.796 15.404 2.557.076 5.114-.12 7.631-.587zM67.219 78.008a10.006 10.006 0 0 1-6.238 2.036A10 10 0 0 1 54.751 78a4.908 4.908 0 0 0-1.824 1.128 5.43 5.43 0 0 0-.412.509c-1.322 1.817-1.975 4.526-2.252 7.29A45.4 45.4 0 0 0 50 91h22c-.105-4.166-.646-9.311-3.002-11.896a4.803 4.803 0 0 0-1.78-1.096z"/>
                <path d="M50.5 72.087c.235-.46.563-.865.964-1.19.245-.21.52-.382.816-.51.037.222.081.443.133.68.149.739.341 1.478.608 2.372.037.119.082.237.126.355.113.295.246.582.4.858.082.133.164.273.253.399.19.262.401.51.63.739.111.11.215.222.334.325a7.105 7.105 0 0 0 1.26.887 8.25 8.25 0 0 0 3.982.998c3.566 0 5.99-1.84 6.866-4.198.037-.111.081-.222.118-.34.303-1.004.55-2.023.742-3.053.768.351 1.395.95 1.78 1.7a6.824 6.824 0 0 1-.082 4.923c1.297-.799 3.158-2.218 3.448-3.334a3.818 3.818 0 0 0-.267-2.639 4.142 4.142 0 0 0-1.194-1.478 3.91 3.91 0 0 0-1.327-.739 7.102 7.102 0 0 0-1.669-.214h-.496a8.842 8.842 0 0 0-.097-2.447 5.448 5.448 0 0 0-1.149-2.298 7.265 7.265 0 0 0-1.26-1.16 5.889 5.889 0 0 0-.675-.444 8.98 8.98 0 0 0-2.306-.961l-.23-.052A9.08 9.08 0 0 0 60.006 61a9.347 9.347 0 0 0-2.729.414 8.542 8.542 0 0 0-3.27 1.803 5.777 5.777 0 0 0-1.853 3.038 8.842 8.842 0 0 0-.097 2.447h-.496a7.102 7.102 0 0 0-1.669.214 3.91 3.91 0 0 0-1.327.74c-.507.393-.916.9-1.194 1.477a3.818 3.818 0 0 0-.237 2.646c.297 1.146 2.15 2.536 3.448 3.334a6.824 6.824 0 0 1-.082-5.026z"/>
            </g>
        </g>
    </g>
</svg>
