<svg xmlns="http://www.w3.org/2000/svg" width="120" height="120" viewBox="0 0 120 120">
    <g fill="none" fill-rule="evenodd">
        <circle cx="60" cy="60" r="60" fill="#14B690"/>
        <g fill="#FFF" fill-rule="nonzero" transform="translate(27 25)">
            <path d="M65.308 30.488c-.943-4.162-4.157-3.823-4.157-3.823-9.776-18.79-38.03-9.313-38.03-9.313-7.658-4.535-12.41-3.649-12.41-3.649-2.651-.228 1.956 8.27 1.956 8.27-2.276 2.178-3.218 7.518-3.218 7.518-2.226 5.55-7.682 2.157-7.682 2.157-3.129 6.498-.592 14.963-.592 14.963l3.381-.93c2.633.433-.351 4.074-.351 4.074-2.711 2.844 1.442 3.51 1.442 3.51C20.174 55.13 19.24 63.561 19.24 63.561c-.26 3.3.188 3.73.188 3.73 9.716 2.257 9.98 1.346 9.98 1.346.94-.861 1.521-4.069 1.521-4.069 8.688 1.262 13.134-.612 13.134-.612.334 2.081 1.21 4.305 1.21 4.305 9.132 1.3 10.267-1.027 10.267-1.027.124-1.425-.164-9.38-.164-9.38 10.855-6.756 8.23-21.545 8.23-21.545 3.438-1.754 1.702-5.822 1.702-5.822z"/>
            <ellipse cx="39.522" cy="6.833" rx="6.208" ry="6.198"/>
        </g>
    </g>
</svg>
