<svg xmlns="http://www.w3.org/2000/svg" width="120" height="120" viewBox="0 0 120 120">
    <g fill="none" fill-rule="evenodd">
        <circle cx="60" cy="60" r="60" fill="#14B690"/>
        <circle cx="60" cy="60" r="57.5" stroke="#14B690" stroke-width="5"/>
        <path fill="#FFF" fill-rule="nonzero" d="M81.701 82.245a14.77 14.77 0 0 1-3.01-8.88V59.04c4.097-4.692 6.356-10.975 5.854-17.844C83.625 29.467 74.09 20 62.38 19.079c-13.717-1.09-25.176 9.215-26.096 22.535v.587c0 2.178-.836 5.613-1.84 7.54-1.087 2.01-2.174 4.02-3.094 5.445-.92 1.424.083 3.267 1.756 3.267h3.178v11.645c0 2.345 1.924 4.272 4.266 4.272h8.782v4.44c0 3.016-1.17 5.948-3.345 8.043l-6.692 6.785C37.372 95.65 38.71 99 41.554 99H87.64c2.76 0 4.349-3.183 2.676-5.445l-8.615-11.31zm-21.245-20.19c-10.455 0-18.902-8.46-18.902-18.933 0-10.471 8.447-18.933 18.902-18.933 10.456 0 18.903 8.545 18.903 19.017 0 10.388-8.531 18.85-18.903 18.85zm0-33.51c-8.029 0-14.553 6.535-14.553 14.577 0 8.043 6.524 14.577 14.553 14.577 8.03 0 14.554-6.534 14.554-14.577 0-8.042-6.524-14.576-14.554-14.576zm.92 17.845l-2.843 2.764-2.76-2.764-2.677-2.681 2.844-2.765 2.676 2.681 6.44-6.367 2.76 2.848-6.44 6.284z"/>
    </g>
</svg>
