<svg xmlns="http://www.w3.org/2000/svg" width="120" height="120" viewBox="0 0 120 120">
    <g fill="none" fill-rule="evenodd">
        <g>
            <circle cx="60" cy="60" r="57.5" stroke="#000" stroke-width="5"/>
            <path d="M59.735 40.185c2.936 0 5.36-3.174 5.742-7.29a2.807 2.807 0 0 0-.92.429s.654-3.873-.73-4.416c0 0-1.909.923-4.092.983-2.182-.06-4.092-.983-4.092-.983-1.384.543-.728 4.417-.728 4.417a2.812 2.812 0 0 0-.92-.43c.38 4.116 2.805 7.29 5.74 7.29zM89.132 74.83l.751-1.554c-1.017.98-2.236 1.554-3.548 1.554-1.342 0-2.588-.602-3.619-1.624l1.077 2.387c-.252-.41-1.222-.618-2.366-.717.442.813 1.538 1.472 2.956 1.792l1.953 3.157 1.952-3.157c1.724-.389 2.974-1.276 3.15-2.333-1.11-.03-2.055.083-2.306.495zM33.136 72.73c2.935 0 5.36-3.174 5.74-7.29a2.785 2.785 0 0 0-.92.429s.656-3.873-.729-4.416c0 0-1.91.923-4.091.982-2.183-.06-4.092-.982-4.092-.982-1.385.543-.73 4.417-.73 4.417a2.78 2.78 0 0 0-.92-.43c.382 4.116 2.806 7.29 5.742 7.29z"/>
            <path d="M91.618 65.675l-1.908-.241c1.047-.602.494-1.917.235-2.357a3.582 3.582 0 0 0-.13-.207l-.044.032c-2.982 2.136-5.421 2.947-5.421 2.947-1.347.529-3.604.9-3.604.9.371 4.007 2.732 7.096 5.588 7.096 1.875 0 3.535-1.33 4.56-3.374.564-1.125.935-2.465 1.045-3.92.039-.265.06-.535.063-.81l-.348-.065h-.036z"/>
            <path fill="#000" fill-rule="nonzero" d="M38.4 73.002c-.037 1.574-2.379 2.844-5.264 2.844-2.886 0-5.228-1.27-5.263-2.844-4.415.401-7.873 4.096-7.873 8.593 0 4.766 3.882 4.755 8.67 4.755h8.93c4.79 0 8.672.012 8.672-4.755 0-4.497-3.458-8.192-7.873-8.593z"/>
            <path fill="#000" fill-rule="nonzero" d="M26.577 65.201l.016.187c.419 4.712 3.188 8.352 6.544 8.352 3.354 0 6.124-3.64 6.542-8.353l.016-.186a7.833 7.833 0 0 0 .076-1.054c0-.358-.027-.712-.076-1.055-.485-3.338-3.237-5.896-6.558-5.896-3.323 0-6.075 2.558-6.56 5.896a7.315 7.315 0 0 0 0 2.11zm2.467-3.748s1.909.924 4.092.983c2.182-.06 4.091-.983 4.091-.983 1.385.544.729 4.417.729 4.417.346-.24.662-.365.92-.428-.38 4.115-2.805 7.288-5.74 7.288-2.936 0-5.361-3.173-5.742-7.288.258.063.575.189.92.428 0 0-.655-3.873.73-4.417zM93.22 74.464c1.447.162 2.718.41 2.718.41-2.888-1.58-2.814-7.255-2.814-7.255C93.628 56.626 86.34 57.2 86.34 57.2l-.006.018-.005-.018s-7.288-.574-6.784 10.418c0 0 .075 5.674-2.814 7.255 0 0 .778-.052 1.818-.071-2.948 1.31-5 4.251-5 7.673 0 4.64 3.778 3.819 8.44 3.819h8.692c4.662 0 8.44.82 8.44-3.819 0-3.76-2.481-6.94-5.902-8.012zm-4.933 2.202l-1.953 3.157-1.952-3.157c-1.418-.32-2.515-.979-2.957-1.792 1.146.1 2.114.308 2.366.718l-1.076-2.388c1.03 1.024 2.276 1.624 3.618 1.624 1.312 0 2.531-.573 3.548-1.554l-.75 1.554c.25-.412 1.195-.524 2.304-.495-.174 1.057-1.424 1.945-3.148 2.333zm3.652-10.116c-.11 1.456-.481 2.795-1.044 3.92-1.026 2.045-2.686 3.374-4.56 3.374-2.857 0-5.219-3.09-5.589-7.095 0 0 2.256-.372 3.604-.901 0 0 2.44-.811 5.421-2.947l.044-.032s.054.076.13.207c.259.44.813 1.756-.235 2.357l1.908.241h.036l.348.064a6.159 6.159 0 0 1-.063.812zM53.176 32.656l.016.186c.419 4.712 3.189 8.352 6.543 8.352 3.355 0 6.125-3.64 6.544-8.352l.016-.186a7.545 7.545 0 0 0 0-2.11c-.486-3.338-3.237-5.897-6.559-5.897-3.321 0-6.074 2.559-6.559 5.897a7.327 7.327 0 0 0 0 2.11zm2.466-3.748s1.91.923 4.093.983c2.182-.06 4.092-.983 4.092-.983 1.384.543.729 4.416.729 4.416a2.79 2.79 0 0 1 .92-.429c-.381 4.116-2.805 7.29-5.741 7.29-2.936 0-5.361-3.174-5.742-7.29.258.065.575.19.92.43.001 0-.655-3.874.73-4.417z"/>
            <path fill="#000" fill-rule="nonzero" d="M65.479 40.337l-.047-.005a9.91 9.91 0 0 0-.37-.042c0 .013-.003.025-.003.037-.001.037-.008.072-.012.109a1.785 1.785 0 0 1-.18.594c-.645 1.616-2.732 4.68-3.962 6.418l-.254-3.612a2.12 2.12 0 0 0 .866-.838c.143-.254.23-.53.23-.811 0 0-.917.404-1.852.404-.054 0-.108-.002-.16-.004a3.29 3.29 0 0 1-.161.004c-.936 0-1.853-.404-1.853-.404 0 .282.087.557.23.811.198.352.506.655.865.838l-.254 3.612c-1.23-1.738-3.316-4.802-3.96-6.418a1.753 1.753 0 0 1-.18-.594c-.005-.037-.011-.072-.013-.108l-.005-.038c-.124.011-.247.026-.369.042-.016.003-.03.003-.046.005-4.269.592-7.556 4.24-7.556 8.653 0 4.826 3.931 4.814 8.78 4.814h9.04c4.849 0 8.78.012 8.78-4.814.002-4.413-3.284-8.06-7.554-8.653zM61.85 57.044h-4.23v10.514l-9.144 5.253 2.116 3.648 9.143-5.254 9.144 5.254 2.115-3.648-9.143-5.254z"/>
        </g>
        <path stroke="#979797" d="M-308.5-360.5h739v828h-739z"/>
    </g>
</svg>
