<svg xmlns="http://www.w3.org/2000/svg" width="120" height="120" viewBox="0 0 120 120">
    <g fill="none" fill-rule="evenodd">
        <circle cx="60" cy="60" r="60" fill="#14B690"/>
        <path fill="#FFF" fill-rule="nonzero" d="M87.303 32c.38 0 .697.316.697.758-.633 14.032-3.167 28-6.842 41.526-1.013 3.73-2.153 7.395-3.294 11.125-.443 1.517-1.837 2.528-3.42 2.528L63.42 88H56.58l-11.087-.063c-1.52 0-2.914-1.011-3.42-2.465-3.675-11.25-6.272-22.817-8.11-34.447-.506-3.16-1.076-6.32-1.456-9.544-.38-6.005-.254-3.413-.507-8.723 0-.379.317-.758.697-.758 13.176.063 26.416.063 39.593.063L87.303 32zm-43.33 15.549h-.317a.685.685 0 0 0-.443.19l-.19.189c-.064.063-.064.126-.127.19l-3.928 10.365c0 .063-.063.126-.063.253v.316c0 .126.063.316.19.38l.19.189c.063.063.127.063.19.126l10.896 4.045c.063 0 .127.064.253.064h.317c.127 0 .317-.064.38-.19l.19-.19c.064-.063.064-.126.127-.19l2.217-5.751a.613.613 0 0 0-.063-.569c-1.837-3.54-2.724-6.004-2.914-6.7a.873.873 0 0 0-.19-.252l-6.525-2.402c-.063 0-.127-.063-.19-.063zm22.869-5.5c-.697.822-.887 1.834-1.14 2.845-.064.19 0 .442.126.632 2.027 2.528 3.104 5.499 4.308 8.47.38 1.01.633 1.832-.57 2.654-.57.38-.444 1.264.19 1.517 2.28.759 1.33.442 4.877 1.833.064 0 .127.063.19.063.507.063 1.267 0 1.838-.063.19 0 .316-.126.443-.253l.253-.316c.064-.063.127-.126.127-.253l3.864-12.135c.19-.569-.126-1.138-.696-1.327l-12.733-3.982c-.507-.127-.697-.127-1.077.316zm-4.308 2.845a.942.942 0 0 0-.824 0l-7.475 3.982.064.063s1.077.506 2.66 1.327c1.584.822.95 2.086.95 2.086l-1.14 4.298c-.063.19 0 .38.064.506.506.948.823 1.833 1.52 2.591a.72.72 0 0 0 .507.19h.38c.127 0 .19-.063.317-.063 1.267-.759 1.013-.632 1.9-1.138.443-.253.443-.948 0-1.201 0 0-1.457-.442-1.14-2.212.316-1.77 1.52-6.826 2.66-10.24l-.443-.19zm2.914 4.74c-.253-.505-1.014-.442-1.267.064-.57 1.453-1.52 3.286-1.647 4.297-.063.443 0 .822.063 1.265 0 .19.064.316.19.442.444.38.95.569 1.457.695.507.127 1.077.127 1.584-.126.634-.316 1.33-.38 1.837-.822.127-.063.317-.126.38-.379.064-.316 0-.632-.126-.885l-2.471-4.55zm20.271-14.916c0-.443-.316-.759-.696-.759-19.322.064-9.693 0-29.774 0-13.747 0-7.222 0-20.272-.063-.38 0-.696.316-.696.759.253 6.383 1.076 12.704 2.217 18.961.063.38.443.632.823.57l.57-.127h.064c1.774-3.856 2.85-6.51 3.547-7.775.697-1.327 2.154-.948 2.154-.948 2.787.822 5.955 1.707 8.045 2.339.19.063.444 0 .634-.063 3.167-2.086 7.855-4.93 9.819-5.12.697-.063 1.077 0 1.33.063.317.127.634-.063.824-.316.253-.442.506-1.011.76-1.517.443-1.01 1.9-1.137 2.217-1.137h.127l1.203.126h.127l12.67 3.982c2.027.632 2.597.632 2.407 2.907-.127 1.328-.57 2.34-2.217 7.648-.064.253.127.443.38.443h.76c.95-.19.887-.759 1.204-1.517.126-.38.57-3.54.76-4.93 1.077-7.395 1.013-13.526 1.013-13.526zm-31.357 17.76c.317.633 1.267.443 1.33-.252 0-.19-.316-.316-.38-.443-.063-.063-.126-.063-.19-.126-.57-.19-1.077.38-.76.822z"/>
    </g>
</svg>
