<svg xmlns="http://www.w3.org/2000/svg" width="120" height="120" viewBox="0 0 120 120">
    <g fill="none" fill-rule="evenodd">
        <path stroke="#979797" d="M-308.5-350.5h739v841h-739z"/>
        <g>
            <circle cx="60" cy="60" r="57.5" stroke="#000" stroke-width="5"/>
            <g transform="translate(48 22)">
                <ellipse cx="13" cy="12.5" fill="#000" stroke="#000" stroke-width="2" rx="13" ry="12.5"/>
                <path fill="#FFF" fill-rule="nonzero" d="M12.507 19.522a6.53 6.53 0 0 1-6.523-6.521H4c0 4.69 3.816 8.506 8.508 8.506a8.435 8.435 0 0 0 6.072-2.548A8.455 8.455 0 0 0 21.017 13l-1.984.002a6.493 6.493 0 0 1-1.87 4.568 6.47 6.47 0 0 1-4.656 1.952z"/>
                <circle cx="8.182" cy="8.593" r="1.838" fill="#FFF" fill-rule="nonzero"/>
                <circle cx="17.481" cy="8.593" r="1.838" fill="#FFF" fill-rule="nonzero"/>
            </g>
            <g transform="translate(20 61)">
                <ellipse cx="13" cy="12.5" fill="#000" stroke="#000" stroke-width="2" rx="13" ry="12.5"/>
                <path fill="#FFF" fill-rule="nonzero" d="M17.163 17.57a6.47 6.47 0 0 1-4.656 1.952 6.53 6.53 0 0 1-6.523-6.521H4c0 4.69 3.816 8.506 8.508 8.506a8.435 8.435 0 0 0 6.072-2.548v.001A8.46 8.46 0 0 0 21.017 13l-1.984.002a6.493 6.493 0 0 1-1.87 4.568z"/>
                <circle cx="8.182" cy="8.593" r="1.838" fill="#FFF" fill-rule="nonzero"/>
                <circle cx="17.481" cy="8.593" r="1.838" fill="#FFF" fill-rule="nonzero"/>
            </g>
            <g transform="translate(48 61)">
                <ellipse cx="13" cy="12.5" fill="#000" stroke="#000" stroke-width="2" rx="13" ry="12.5"/>
                <path fill="#FFF" fill-rule="nonzero" d="M17.163 17.57a6.47 6.47 0 0 1-4.656 1.952 6.53 6.53 0 0 1-6.523-6.521H4c0 4.69 3.816 8.506 8.508 8.506a8.435 8.435 0 0 0 6.072-2.548v.001A8.46 8.46 0 0 0 21.017 13l-1.984.002a6.493 6.493 0 0 1-1.87 4.568z"/>
                <circle cx="8.182" cy="8.593" r="1.838" fill="#FFF" fill-rule="nonzero"/>
                <circle cx="17.481" cy="8.593" r="1.838" fill="#FFF" fill-rule="nonzero"/>
            </g>
            <g transform="translate(76 61)">
                <ellipse cx="13" cy="12.5" fill="#000" stroke="#000" stroke-width="2" rx="13" ry="12.5"/>
                <path fill="#FFF" fill-rule="nonzero" d="M17.163 17.57a6.47 6.47 0 0 1-4.656 1.952 6.53 6.53 0 0 1-6.523-6.521H4c0 4.69 3.816 8.506 8.508 8.506a8.435 8.435 0 0 0 6.072-2.548v.001A8.46 8.46 0 0 0 21.017 13l-1.984.002a6.493 6.493 0 0 1-1.87 4.568z"/>
                <circle cx="8.182" cy="8.593" r="1.838" fill="#FFF" fill-rule="nonzero"/>
                <circle cx="17.481" cy="8.593" r="1.838" fill="#FFF" fill-rule="nonzero"/>
            </g>
        </g>
    </g>
</svg>
