<svg xmlns="http://www.w3.org/2000/svg" width="120" height="120" viewBox="0 0 120 120">
    <g fill="none" fill-rule="evenodd">
        <circle cx="60" cy="60" r="60" fill="#14B690"/>
        <g fill="#FFF" fill-rule="nonzero" transform="translate(36 27)">
            <path d="M46.32 1.444l-1.35 7.31-1.275-.225 1.35-7.304L41.73.656l-1.22 7.17c-1.256-.17-2.74-.34-4.448-.494-.352-.292-.781-.488-1.271-.488-.37 0-.702.13-1 .303-2.632-.178-5.662-.303-9.093-.303-3.43 0-6.463.125-9.093.303-.296-.174-.625-.303-1-.303-.49 0-.92.196-1.267.488a94.126 94.126 0 0 0-4.526.506L7.618.792l-2.982.509 1.327 7.181-1.285.178L3.36 1.52l-2.91.5 2.853 16.82L6.46 18.3l-1.45-7.851 1.283-.179 1.444 7.812 2.733-.468-1.316-7.765a92.05 92.05 0 0 1 3.44-.4v9.588c0 .43.17.826.419 1.171l-.012.047 5.65 6.907 1.262 14.245-5.307 20.94a2.867 2.867 0 0 0 1.99 3.521c.147.04 2.702.387 3.543-2.055l5.23-18.97 5.525 18.78c.81 2.552 3.396 2.095 3.542 2.056a2.868 2.868 0 0 0 1.991-3.521l-5.289-20.751.63-14.045 4.84-7.11c-.016-.06.2-.858.2-1.218V9.447c1.267.125 2.38.26 3.366.393l-1.299 7.64 3.069.525 1.422-7.69 1.275.225-1.42 7.684 2.819.482 2.85-16.82-2.57-.442zM31.885 18.176c-.593 5.428-13.273 5.658-14.456-.054-.207-.998-.807-8.998-.807-8.998 2.39-.149 5.079-.25 8.076-.25 2.997 0 5.688.101 8.075.25 0 0-.67 7.055-.888 9.052z"/>
            <ellipse cx="24.67" cy="16.839" rx="4.374" ry="4.402"/>
        </g>
    </g>
</svg>
