<svg xmlns="http://www.w3.org/2000/svg" width="144" height="189" viewBox="0 0 144 189">
    <g fill="none" fill-rule="evenodd">
        <text fill="#4A4A4A" font-family="OpenSans-Semibold, Open Sans" font-size="18" font-weight="500">
            <tspan x="38.543" y="174.121">None</tspan>
        </text>
        <path fill="#000" fill-rule="nonzero" d="M79.96 39.022c0-1.983-1.794-3.627-3.792-3.627h-6.446c-1.998 0-3.682 1.644-3.682 3.627v39.402H15v26.711c0 13.49 3.742 22.459 10.935 26.895 7.215 4.437 15.163 6.654 23.723 6.654 4.287-.195 43.165 0 47.635 0 8.383-.388 16.012-2.795 22.927-7.23 6.914-4.442 10.359-13.213 10.359-26.319v-26.71H79.96V39.021z"/>
        <path stroke="#FFF" stroke-linecap="square" stroke-width="3" d="M14.44 78.5h50.12M64.5 38.443v38.114"/>
        <path stroke="#000" stroke-width="3" d="M1.5 1.5h141v186H1.5z"/>
        <g fill="#FFF" fill-rule="nonzero">
            <path d="M53.134 94.561c.025.081-.035.197-.179.351-.144.154-.218.262-.23.31-.137.519-.044 1.46.401 2.747l.188.52a.48.48 0 0 1 .118-.054c.177-.057.37-.034.577.069.207.104.331.229.375.374.034.108-.056.227-.26.334-.16.084-.475.197-.495.247-.056.141.299.846.452 1.27.195.539.416.929.613 1.159.161.188.25.332.273.404.057.181.028.37-.087.571a.87.87 0 0 1-.496.408c-.41.137-.753.05-.994-.26-.047-.061-.216-.36-.479-.882a6.265 6.265 0 0 1-.284-.695l-.194-.548c-.141-.361-.332-.84-.406-.865-.237-.082-1.42.626-2.27 1.125-.732.431-2.139 1.222-2.149 1.329-.003.028.33.547.703 1.364.298.654.666 1.003.95 1.124a.216.216 0 0 1 .105.108c.1.225-.059.43-.474.621-.384.178-.73.222-1.042.133-.192-.055-1.099-2.226-1.695-2.455-.083-.032-.435.054-.636-.046a.941.941 0 0 1-.438-.415c-.052-.102-.016-.206.109-.316.125-.11.348-.258.363-.317.013-.051-.125-.328-.229-.631a5.678 5.678 0 0 0-.236-.61c-.734-1.493-1.094-2.5-1.06-3.016.028-.422.286-.754.761-.974.292-.136.598-.194.914-.174.316.02.518.13.605.329.045.104.056.259.027.455a4.785 4.785 0 0 0-.055.457c.035.833.237 1.801.692 2.798.075.163.13.296.137.298.028.009.351-.211.753-.463 1.25-.783 3.583-1.56 3.723-1.847.185-.378-.688-2.184-.763-2.588-.25-1.354-.034-2.155.626-2.375.394-.131.753-.128 1.074.004.324.133.526.341.612.622zM59.521 101.301c.036.157-.096.35-.389.579-.294.23-.548.374-.767.43-.24.062-.516.05-.831-.032-.315-.082-.503-.227-.561-.436-.051-.183.017-.375.207-.578.19-.203.409-.337.656-.4.303-.078.642-.086.998-.014.41.082.639.239.687.451zM69.821 95.725c.046 1.36-.351 2.525-1.106 3.514-.848 1.11-2 1.732-3.532 1.921a5.935 5.935 0 0 1-1.428-.021c-1.148-.14-2.045-.497-2.676-1.136-.543-.549-.935-1.347-1.152-2.402-.282-1.37-.098-2.674.598-3.887.813-1.417 2.178-2.292 4.015-2.5 1.614-.184 2.958.271 3.954 1.306.86.89 1.285 1.967 1.327 3.205zm-1.763-.042c-.125-1.962-1.062-3.116-2.817-3.306a2.827 2.827 0 0 0-.625.012c-.722.083-1.42.412-2.056.986-1.017.917-1.318 2.377-.975 4.313.031.177.127.415.272.714.327.674.708 1.148 1.141 1.405.502.298 1.173.393 2.021.288 1.154-.143 1.985-.683 2.512-1.66.411-.764.594-1.686.527-2.752zM85.157 101.62c-.057.229-.278.397-.658.512-.38.115-.71.143-.994.08a2.99 2.99 0 0 1-1.145-.514c-.34-.25-.769-.663-1.021-.722-.878-.203-2.582.275-3.58.167-.833-.091-1.513-.29-2.037-.622-.613-.389-.913-.925-.877-1.604.021-.406.301-.851.816-1.328.177-.164 1.353-.796 1.412-1.043.099-.416-.983-2.054-.938-2.705.058-.83.448-1.482 1.193-1.936.745-.453 1.707-.618 2.858-.468.837.109 1.508.373 1.979.777.5.428.692.952.588 1.539-.105.596-.604 1.192-1.453 1.798-.45.321-2.165 1.108-2.228 1.361-.018.074.593.706 1.299 1.452.742.783 1.169 1.208 1.329 1.237.103.018.413-.063.94-.231.526-.168.8-.27.81-.316.047-.231-.306-.429-1.064-.569-.257-.047-.669.073-.892.045-.283-.036-.563-.414-.526-.648.069-.438.475-.604 1.212-.472a9.458 9.458 0 0 1 1.981.606c.929.39 1.36.76 1.28 1.09-.146.606-2.593 1.504-2.593 1.504-.015.06.688.531 1.011.603.089.02.231.025.427.013.196-.014.346-.009.446.015.328.076.468.205.425.379zm-4.988-1.64c.031-.111-1.968-2.307-2.303-2.348-.196-.023-.787.57-.929.709-.312.304-.477.612-.502.923-.038.462.409.725 1.334.824.285.03.688.032 1.213.01.525-.022 1.187-.118 1.187-.118zm.996-6.645c.032-.215-.04-.404-.219-.568-.179-.164-.424-.269-.733-.31a2.344 2.344 0 0 0-1.625.354c-.487.314-.746.692-.788 1.125-.031.32.015.656.109.994.114.409.378.892.519.909.299.038 1.131-.61 1.688-1.077.627-.525.985-.997 1.049-1.427zM97.435 105.232c-.262.515-.84.71-1.707.643a6.558 6.558 0 0 1-2.11-.542c-.657-.286-1.389-.728-2.193-1.321-.997-.735-1.447-1.309-1.3-1.738a.548.548 0 0 1 .359-.342.843.843 0 0 1 .577.008c.299.107.536.321.718.598.295.448.481.708.505.74.234.315.95.681 1.918 1.104.862.377 1.36.423 1.509.106.125-.266-.097-.864-.726-1.67-.427-.547-.928-1.094-1.395-1.631-.605-.697-1.029-1.307-1.256-1.802-.299-.653-.354-1.291-.135-1.916.275-.785.856-1.371 1.742-1.739.962-.4 2.007-.393 3.074.058.918.388 1.61.912 2.067 1.549.457.637.637 1.358.467 2.011-.063.245-.219.665-.313 1.159-.028.148-.05.271-.084.338a1.635 1.635 0 0 1-.589.673c-.31.194-.646.217-1.007.045a1.059 1.059 0 0 1-.484-.484c-.121-.229-.15-.422-.079-.577.051-.112.164-.264.334-.452.171-.188.281-.336.333-.448.538-1.163.268-2.002-.824-2.471-.607-.26-1.199-.284-1.759-.074-.56.21-.923.546-1.097.997-.245.636.021 1.507.764 2.451.656.834 1.422 1.697 2.057 2.563.685.936.875 1.692.634 2.164z"/>
            <g>
                <path d="M47.865 121.951c0 .652-.389 1.174-1.167 1.637-.779.462-1.621.714-2.522.713-1.302-.002-2.271-.411-2.89-1.372-.503-.781-.753-1.879-.753-3.184 0-1.324.309-2.443.907-3.499.73-1.287 1.731-2.049 3.012-2.04.635.004 1.194.175 1.66.532.521.399.846.965.969 1.652.102.566.153.81.153.81s-.307 2.258-.922 2.188a.85.85 0 0 1-.508-.258.717.717 0 0 1-.229-.528c0-.111.052-.267.16-.471.108-.204.163-.372.163-.498 0-.651-.078-1.11-.215-1.361-.186-.34-.545-.535-1.086-.564-.551-.03-1.065.322-1.531.987-.388.554-.647 1.125-.766 1.726a9.053 9.053 0 0 0-.183 1.723c0 .851.078 1.472.229 1.859.246.627.742 1.054 1.485 1.258.224.062.409.094.552.101.368.018.764-.082 1.164-.291.355-.186.638-.412.827-.663.112-.148.181-.348.201-.593l-.062-.041c-.728-.065-1.303-.065-1.691.037-.121.032-.25.086-.369.122a.994.994 0 0 1-.383.045.814.814 0 0 1-.601-.331 1.04 1.04 0 0 1-.216-.631c0-.189.123-.336.354-.411.148-.048.64-.053 1.445-.028.733.021 1.255.049 1.553.082.839.093 1.26.534 1.26 1.292zM58 123.996v.043c0 .123-.385.181-.61.181-.174 0-.396-.039-.466-.121-.104-.122-.782-.531-2.047-1.07-1.266-.54-2.109-.861-2.519-.872-.072-.002-.061-.008-.171-.008-.14 0-.186.004-.186.002v.411c0 .139-.078.323-.031.538.056.258.053.419.114.473.176.153.25.242.25.278 0 .108-.085.197-.228.263a1.182 1.182 0 0 1-.499.097c-.39-.001-.695-.086-.91-.248-.199-.15-.085-1.769-.31-2.004-.046-.048-.446-.066-.677-.178-.265-.127-.399-.271-.399-.409 0-.282.841-.373 1.028-.554.071-.069.083-.724.108-1.339.027-.697.04-1.22.077-1.499.05-.374.14-.965.232-1.77l-.124-.002c-.41.002-.615-.222-.615-.68 0-.395.126-.651.369-.745.169-.065.408-.114.522-.193.193-.134.367-.39.485-.463.118-.073.304-.111.56-.111.185 0 .276.11.276.324 0 .067.129.1.385.101 1.199.005 2.219.337 3.059.959 1.029.762 1.552 1.829 1.552 3.093 0 .971-.271 1.797-.799 2.269-.359.32-1.906 1.013-1.906 1.013-.002.062 1.522.647 2.209.966.816.376 1.271.844 1.271 1.255zm-2.175-5.558c0-.759-.34-1.37-1.003-1.796-.534-.343-1.163-.531-1.883-.542-.093-.001-.6-.022-.662.048-.098.109-.097 1.258-.292 2.298-.118.625-.391 2.302-.232 2.525.137.192.967.254 1.111.257.124.002.303-.021.54-.072.679-.149 1.234-.374 1.667-.827a2.634 2.634 0 0 0 .754-1.891zM67.894 119.616c0 1.396-.37 2.492-1.092 3.346-.811.958-1.922 1.322-3.336 1.325-.4.001-.832-.045-1.292-.125-1.02-.179-1.758-.48-2.198-1.005-.379-.451-.569-1.096-.569-2.077 0-1.273.373-2.845 1.092-4.239.843-1.635 1.978-2.603 3.413-2.611 1.261-.008 2.265.714 3.014 1.929a6.433 6.433 0 0 1 .968 3.457zm-1.477.038c0-2.03-.699-3.429-2.06-3.827a1.512 1.512 0 0 0-.492-.05c-.574.027-1.153.367-1.721 1.001-.913 1.019-1.369 2.814-1.369 4.595 0 .163.044.382.124.648.178.601.439.986.784 1.2.399.247.985.359 1.754.328 1.045-.042 1.839-.415 2.365-1.272.411-.671.615-1.52.615-2.623zM76.886 121.181c0 .202-.052.454-.155.753a3.283 3.283 0 0 1-1.444 1.767c-.641.385-1.354.56-2.122.562-1.26.003-2.231-.438-2.904-1.243-.584-.698-.876-1.597-.876-2.795 0-.992.172-1.998.507-2.955.381-1.088.938-1.969 1.676-2.567.581-.472 1.179-.686 1.784-.686.871 0 1.53.314 1.981.913.367.487.554 1.105.554 1.914 0 .364-.11.841-.322 1.445-.258.738-.543 1.162-.861 1.199-.358.042-.851-.399-.814-.546.012-.048.262-.205.43-.379.206-.213.307-.65.307-1.238 0-.569-.065-1.036-.199-1.407-.203-.562-.544-.831-1.015-.809-.328.016-.687.218-1.077.629-.296.312-.55.664-.752 1.048-.505.962-.752 2.171-.752 3.524 0 1.967.798 2.876 2.397 2.802.686-.032 1.247-.253 1.629-.672.164-.18.417-.579.724-1.161.218-.413.446-.642.691-.666a.515.515 0 0 1 .431.149c.12.119.182.259.182.419zM85.462 122.36c.037.166-.037.413-.107.581-.093.222-.216.34-.37.34a.834.834 0 0 1-.176-.031.793.793 0 0 0-.179-.031c-.44.001-1.078.176-1.913.529-.835.354-1.473.535-1.913.536-1.65.002-2.475-1.608-2.475-4.173 0-2.019.065-3.343.154-4.24.012-.119.015-.185.015-.192 0-.056-.01-.135-.03-.238a1.36 1.36 0 0 1-.031-.223c0-.351.259-.553.767-.628.784-.115 1.58-.234 2.367-.333a19.28 19.28 0 0 1 2.322-.168c.297 0 .56.023.784.078.307.075.462.184.462.33 0 .216-.252.337-.754.34-.062 0-.156-.003-.284-.012a4.427 4.427 0 0 0-.285-.013c-.831.006-2.013.209-3.396.479-.078.015-.159.026-.231.046-.072.02-.122.079-.153.179-.113.368-.168 1.088-.168 2.387 0 .195.097.285.292.267.266-.026.65-.126 1.153-.293.502-.168.886-.261 1.153-.279.297-.021.865.014 1.03.178.123.123.153.49.153.562 0 .256-.076.402-.229.432-.154.029-.378.112-.492.093-.062-.011-.197-.068-.34-.06-.359.022-.8.102-1.292.245-.416.121-.849.264-1.276.382-.061.017-.115.031-.161.046s-.083.084-.1.198a3.323 3.323 0 0 0-.031.465c0 .829.018 1.368.046 1.538.109.656.384 1.019.845.999.39-.017.958-.208 1.705-.507.747-.299 1.342-.451 1.783-.456.698-.009 1.273.27 1.355.647zM95 123.557v.096c0 .278-.455.417-.68.416-.174-.001-.431-.118-.5-.293-.145-.361-.8-1.233-2.066-2.277-1.266-1.045-2.116-1.533-2.526-1.536-.072-.001.002-.006-.105-.002-.138.005-.122.017-.122.017v.708c0 .246-.148.579-.102.994.056.503.018.837.081.951.173.313.231.517.231.597a.86.86 0 0 1-.237.594.68.68 0 0 1-.503.236c-.39 0-.695-.197-.912-.554-.197-.323.024-3.423-.31-3.753-.044-.044-.448-.067-.676-.215-.265-.171-.401-.37-.401-.572 0-.413.834-.674 1.03-.902.098-.115.083-.707.107-1.13.027-.478.042-.8.078-.963.049-.223.136-.565.228-.969l-.123-.002c-.41.006-.615-.107-.615-.323 0-.186.125-.297.369-.339.172-.029.38-.039.523-.084.186-.059.365-.163.483-.192.118-.029.306-.043.562-.043.185 0 .276.043.276.131 0 .027.129.042.385.043 1.199.003 2.219.138 3.059.441 1.032.373 1.553.945 1.553 1.737 0 .608-.271 1.008-.799 1.59-.359.396-1.903 1.312-1.906 1.364-.01.148 1.609 1.111 2.279 1.693.824.717 1.339 1.615 1.339 2.541zm-2.313-7.297c0-.462-.339-.799-1.005-1.031-.534-.187-1.161-.283-1.881-.291-.093-.001-.61-.038-.665.022-.044.049-.096.622-.291 1.255-.117.379-.472 1.592-.231 1.947.146.216.967.333 1.111.334.124 0 .303-.04.54-.116.678-.22 1.236-.595 1.667-.902.499-.357.755-.763.755-1.218zM103.17 122.582c0 .586-.372 1.007-1.092 1.33a4.655 4.655 0 0 1-1.922.412c-.646 0-1.412-.152-2.274-.501-1.072-.433-1.614-.981-1.614-1.561 0-.216.067-.399.2-.546a.572.572 0 0 1 .476-.204c.277.018.532.182.769.437.377.406.615.633.646.66.281.254 1.004.386 1.937.432.83.041 1.246-.125 1.246-.508 0-.321-.393-.833-1.168-1.474-.519-.429-1.096-.861-1.629-1.303-.696-.577-1.206-1.137-1.523-1.624-.419-.643-.629-1.013-.629-1.55 0-.675.283-1.222.829-1.706.593-.525 1.332-.815 2.213-.813.758.002 1.398.164 1.921.536.522.372.892.943 1 1.614.041.251.074.685.184 1.19.033.152.061.275.061.351 0 .34-.067.617-.184.824-.156.277-.394.386-.722.314-.185-.04-.361-.152-.53-.335-.169-.183-.254-.35-.254-.51 0-.116.031-.285.093-.502.062-.217.092-.383.092-.498 0-1.2-.462-1.819-1.384-1.872-.513-.029-.943.118-1.292.427-.349.309-.522.657-.522 1.062 0 .573.443 1.15 1.323 1.958.759.698 1.649 1.389 2.445 2.055.866.729 1.304 1.368 1.304 1.905z"/>
            </g>
        </g>
    </g>
</svg>
