<svg xmlns="http://www.w3.org/2000/svg" width="144" height="189" viewBox="0 0 144 189">
    <g fill="none" fill-rule="evenodd">
        <path stroke="#FFF" stroke-linecap="square" stroke-width="3" d="M51.5 24.5v43"/>
        <text fill="#4A4A4A" font-family="OpenSans-Semibold, Open Sans" font-size="18" font-weight="500">
            <tspan x="51.714" y="174.121">5+</tspan>
        </text>
        <g fill="#000" fill-rule="nonzero">
            <path d="M37.138 79.666c.131 2.445-1.145 3.472-3.297 4.106-.412.124-.839.198-1.263.283-1.52.3-2.726-.043-3.402-1.486-.047-.098-.146-.172-.219-.255l.001.018c.01-.051.025-.106.035-.158-.655-2.274-1.727-4.303-3.335-6.04-.89-.962-1.652-2.04-2.497-3.044-.388-.463-.67-.987-.936-1.517-.907-1.8-.861-3.617.248-5.428.451-.427.803-.946 1.285-1.36 1.678-1.452 3.656-2.173 5.746-2.644 1.094-.171 2.181-.133 3.266-.02 1.406.15 2.39.877 2.982 2.098.71 1.453.718 3.049.7 4.653-.02 1.922-.36 3.856-.12 5.763.215 1.682.535 3.351.806 5.03zM23.942 66.238c-.848.674-1.302 1.547-1.348 2.596-.08 1.752 1.58 3.01 3.007 2.28 1.426-.73 2.321-1.948 3.001-3.318.349-.708.111-1.41-.489-1.854-1.107-.83-2.927-.7-4.171.296z"/>
            <path d="M20.563 66.061c-.887 1.622-.808 3.311.125 5.044.275.51.564 1.017.945 1.474.83.99 1.589 2.044 2.455 2.998 1.57 1.727 2.668 3.683 3.407 5.846-.006.047-.015.097-.025.147l-.002-.017c-.249.67-.445 1.356-.824 1.966-.481.772-1.138 1.231-2.06 1.322-1.198-.128-2.15-.825-2.965-1.688-2.645-2.816-5.135-5.762-6.768-9.3-.708-1.538-1.115-3.125-.822-4.764.536-1.66 1.816-2.387 3.408-2.73.348-.075.693-.148 1.04-.217.714.096 1.364-.249 2.086-.081zm-4.048 2.35c-.143-.225-.471-.535-.877-.456-.437.082-.784.356-.908.839-.336 1.34.04 2.63.612 3.903.186.408.391.818.77 1.1.423.319.656.245.642-.265-.026-1.144.178-2.231.381-3.318.116-.616-.126-1.166-.62-1.804zM36.543 79.091c-.306-1.618-.656-3.231-.908-4.857-.284-1.835-.02-3.68-.058-5.52-.031-1.538-.09-3.066-.801-4.483-.598-1.188-1.55-1.914-2.884-2.1-1.03-.141-2.057-.213-3.09-.079.338-.365.683-.729 1.022-1.094.654-.469 1.246-1.015 2.02-1.308 3.24-1.225 5.79-.211 7.353 2.945 1.084 2.188 1.538 4.535 1.798 6.924.275 2.533.293 5.094 1.022 7.575.199.681.133 1.383-.14 2.058-.485 1.187-1.317 1.636-2.57 1.337-.757-.181-1.428-.56-2.078-.978-.222-.141-.457-.278-.686-.42zM29.142 61.238c-.318.35-.643.7-.962 1.051-1.907.32-3.699.886-5.16 2.163-.417.362-.711.835-1.106 1.217-.736-.171-1.407.186-2.132.099-.11-.628.23-1.07.58-1.453.693-.766.852-1.636.547-2.688-.228-.786-.39-1.583-.549-2.383-.121-.606-.116-1.217.098-1.774.21-.547.432-1.123 1.244-.766.06.025.13.02.198.02 1.517.027 1.644.128 2.07 1.614.56 1.964 1.22 2.463 3.173 2.41.692-.03 1.406-.137 2 .49z"/>
        </g>
        <g fill="#000" fill-rule="nonzero">
            <path d="M80.96 39.022c0-1.983-1.794-3.627-3.792-3.627h-6.446c-1.998 0-3.682 1.644-3.682 3.627v39.402H16v26.711c0 13.49 3.742 22.459 10.935 26.895 7.215 4.437 15.163 6.654 23.723 6.654 4.287-.195 43.165 0 47.635 0 8.383-.388 16.012-2.795 22.927-7.23 6.914-4.442 10.359-13.213 10.359-26.319v-26.71H80.96V39.021z"/>
            <path d="M92.053 58.048c.08 4.44.5 11.114.962 17.588.018 0 .036-.136.057-.136h10.252c.63-5.848 1.301-12.826 1.78-17.59 1.184-11.824-2.924-13.584-6.525-13.584-3.602 0-6.727 2.962-6.526 13.722z"/>
            <path d="M91.699 62.736c1.023-8.605-2.579-9.867-5.692-9.867-.717 0-1.25.2-2.094.464v21.532c0 .311.043.635.006.635h6.24c.546-4.595 1.128-9.297 1.54-12.764zM99.305 42.497l3.13-14.22-3.355 3.63 1.567-10.143-3.313 5.668-2.726-15.38-1.174 11.522-2.734-3.937 5.475 22.86zM86.906 51.824l4.968-7.56-3.978 1.855 3.211-6.572-3.21 2.374.92-7.633-3.138 5.388-1.766-10.703V52.05c1.687-.478 2.993-.225 2.993-.225z"/>
        </g>
        <g fill="#000" fill-rule="nonzero">
            <path d="M65.472 84.42a11.494 11.494 0 0 1-6.197.78c.348 1.523 1.92 2.545 3.628 2.305 1.707-.24 2.938-1.656 2.852-3.218l-.283.132zM53.324 31.109c.198-.094.407-.174.633-.226a11.785 11.785 0 0 1 1.997-.271c.211-.01.415.008.613.04.016-.02.036-.038.052-.06a.93.93 0 0 0 .139-.826l-.321-.994c-.145-.45-.63-.746-1.179-.719a8.122 8.122 0 0 0-1.359.185c-.555.125-.954.546-.97 1.024l-.034 1.047a.93.93 0 0 0 .361.755c.022.018.046.03.068.045zM59.712 31.948l-.254-.887c-.115-.4-.471-.674-.866-.663a4.58 4.58 0 0 0-.973.131.858.858 0 0 0-.417.255c.024.29-.035.584-.17.84.42.246.75.654.896 1.163l.131.458a6.967 6.967 0 0 0 1.033-.155c.228-.053.42-.2.538-.414a.958.958 0 0 0 .082-.728zM51.306 33.713c0-.526.205-1.006.542-1.359-.201-.21-.34-.475-.396-.763a.824.824 0 0 0-.445-.127 4.578 4.578 0 0 0-.973.131.898.898 0 0 0-.674.883v.925c0 .254.102.5.278.677a.832.832 0 0 0 .632.25 6.973 6.973 0 0 0 1.036-.136v-.48zM53.153 39.796l.017 1.847c.005.506.199 1 .532 1.354.326.348.746.53 1.183.51a12.043 12.043 0 0 0 2.302-.323c.424-.102.779-.392.997-.817.222-.433.272-.96.137-1.448l-.491-1.775c-.222-.802-.89-1.353-1.626-1.34a8.073 8.073 0 0 0-1.811.243c-.738.189-1.248.908-1.24 1.75zM61.706 36.76l-.369-1.332c-.167-.602-.669-1.014-1.221-1.004a6.112 6.112 0 0 0-1.362.182c-.23.06-.428.189-.583.362.042.457-.04.92-.244 1.316-.029.057-.067.103-.1.156l.008.863c0 .04.008.08.012.119.418.284.754.712.95 1.237.106.028.214.047.326.042a9.096 9.096 0 0 0 1.73-.243c.32-.077.587-.295.75-.613.167-.324.205-.72.103-1.086zM52.662 38.152c-.007-.04-.01-.08-.021-.12l-.23-.83c-.047-.042-.097-.077-.14-.123a2.405 2.405 0 0 1-.598-1.2 1.129 1.129 0 0 0-.622-.18 6.103 6.103 0 0 0-1.362.181c-.554.142-.937.68-.932 1.312l.013 1.385c.003.38.149.75.398 1.016.246.26.562.396.89.382a9.092 9.092 0 0 0 1.73-.243c.109-.026.208-.074.303-.13.042-.558.247-1.06.571-1.45zM53.197 44.256a3.254 3.254 0 0 1-.856-2.18l-.004-.475a1.521 1.521 0 0 0-.925-.306 8.099 8.099 0 0 0-1.814.243c-.74.188-1.25.907-1.242 1.749l.018 1.847c.005.506.198 1 .532 1.354.327.348.747.53 1.185.51a12.204 12.204 0 0 0 2.305-.323c.426-.103.78-.393.999-.818a2.01 2.01 0 0 0 .168-1.282 2.771 2.771 0 0 1-.366-.319zM63.894 42.952l-.491-1.774c-.222-.803-.892-1.354-1.629-1.34a8.099 8.099 0 0 0-1.814.243 1.58 1.58 0 0 0-.85.569l.127.456a3.254 3.254 0 0 1-.222 2.332c-.076.148-.167.28-.263.408.042.445.219.87.515 1.186.327.348.748.53 1.185.51a12.204 12.204 0 0 0 2.306-.323c.425-.103.78-.393.999-.818.222-.433.272-.961.137-1.449zM54.123 46.7l.018 1.848c.004.505.198 1 .53 1.354.327.348.748.53 1.184.511a12.09 12.09 0 0 0 2.303-.323c.425-.103.78-.393.997-.818.222-.433.271-.96.136-1.447l-.49-1.775c-.223-.803-.89-1.354-1.626-1.34a8.106 8.106 0 0 0-1.812.243c-.737.187-1.247.907-1.24 1.748z"/>
            <path d="M64.67 48.477l-.492-1.775c-.222-.802-.895-1.352-1.635-1.338a8.208 8.208 0 0 0-1.823.245 1.595 1.595 0 0 0-.898.62l.232.835a3.245 3.245 0 0 1-.224 2.33 2.914 2.914 0 0 1-.247.382c.088.293.233.566.438.783.329.348.751.529 1.19.51.78-.034 1.559-.144 2.317-.326.428-.102.784-.393 1.004-.818a2.02 2.02 0 0 0 .138-1.448zM54.055 50.206a3.241 3.241 0 0 1-.857-2.179l-.008-.866a1.541 1.541 0 0 0-.985-.344 8.197 8.197 0 0 0-1.822.244c-.742.189-1.256.909-1.248 1.75l.015 1.847c.004.506.2 1 .533 1.354.328.348.751.529 1.19.51a12.241 12.241 0 0 0 2.317-.326c.427-.102.783-.392 1.003-.817.138-.266.201-.567.205-.874a2.979 2.979 0 0 1-.343-.3zM55.158 53.598l-.042 1.855a1.72 1.72 0 0 0 .614 1.343c.395.338.912.506 1.456.472.966-.06 1.934-.197 2.878-.404a2.025 2.025 0 0 0 1.27-.856 1.72 1.72 0 0 0 .22-1.46l-.55-1.766c-.249-.799-1.063-1.33-1.978-1.29a12.623 12.623 0 0 0-2.264.306c-.926.215-1.585.955-1.604 1.8zM66.937 55.2l-.499-1.774c-.226-.802-.914-1.35-1.674-1.332a8.535 8.535 0 0 0-1.873.251 1.664 1.664 0 0 0-.991.729l.394 1.403c.221.784.134 1.634-.24 2.333-.038.072-.089.132-.132.2.067.104.143.203.23.291.336.347.77.527 1.22.505.801-.036 1.602-.149 2.381-.334.44-.104.807-.396 1.035-.822.231-.435.286-.963.149-1.45zM50.889 75.149c.749 5.325 5.274 9.078 10.092 8.4a8.08 8.08 0 0 0 1.953-.53C60.614 72 53.627 58.94 44.246 53.51c2.62 3.994 4.365 7.962 5.2 11.825.47 2.176.683 4.051.89 5.864.157 1.37.304 2.664.553 3.951zM54.04 59.175c.037-.008.075-.012.113-.02.48-.11.884-.41 1.136-.844.065-.111.118-.228.157-.35-.065-.052-.136-.095-.197-.154a3.02 3.02 0 0 1-.927-2.191l.009-1.476a1.8 1.8 0 0 0-1.196-.411 10.058 10.058 0 0 0-2.044.275 1.861 1.861 0 0 0-1.32 1.19 34.774 34.774 0 0 1 4.268 3.981zM55.974 60.525l.01 1.257a48.147 48.147 0 0 1 1.598 2.44c.05.003.097.013.147.01a12.383 12.383 0 0 0 2.343-.329c.433-.103.794-.394 1.017-.82a2 2 0 0 0 .143-1.448l-.495-1.774c-.224-.802-.903-1.351-1.651-1.336a8.443 8.443 0 0 0-1.845.247c-.752.19-1.273.911-1.267 1.753zM70.336 72.71c-.625-4.446-.637-9.698-.103-12.994-4.738 3.932-7.657 6.929-9.103 10.474 2.057 4.2 3.59 8.578 4.496 12.707 3.376-1.964 5.293-6.039 4.71-10.187zM63.472 64.891c1.135-1.468 2.527-2.953 4.203-4.567-.286-.811-.95-1.362-1.676-1.354a8 8 0 0 0-1.918.256c-.78.205-1.314 1.014-1.296 1.967l.037 2.091c.01.572.22 1.133.577 1.539.022.026.049.044.073.068zM61.98 66.833a1.777 1.777 0 0 0-.704-.142 9.58 9.58 0 0 0-1.24.091c-.232.033-.458.09-.687.139a79.5 79.5 0 0 1 1.286 2.594 21.21 21.21 0 0 1 1.346-2.682zM57.326 35.629a1.52 1.52 0 0 0 .103-1.086l-.368-1.331c-.166-.602-.667-1.015-1.22-1.004a6.058 6.058 0 0 0-1.358.182c-.553.141-.935.68-.93 1.311l.013 1.385c.004.38.15.75.4 1.016.244.26.559.397.886.383a9.059 9.059 0 0 0 1.727-.243c.319-.077.584-.294.747-.613z"/>
        </g>
        <path d="M125.521 53.43a3.931 3.931 0 0 1-2.556 2.338 205.11 205.11 0 0 0-.8 8.277 42.545 42.545 0 0 1 4.769-10.047 4.161 4.161 0 0 1-1.037-.362c-.128-.066-.256-.13-.376-.207zM118.432 56.071a4.153 4.153 0 0 1-1.248.348c.706 1.992 1.36 4.571 1.829 7.91.262-3.586.591-6.723.853-8.959-.073-.044-.15-.081-.221-.13-.35.346-.76.626-1.213.831z"/>
        <path fill="#000" fill-rule="nonzero" d="M138.036 48.344c0-.93-.29-1.791-.785-2.502a5.586 5.586 0 0 0 .336-1.898c.002-3.119-2.535-5.648-5.667-5.65-.345 0-.683.036-1.011.095a3.855 3.855 0 0 0 .642-2.124c.001-2.142-1.745-3.881-3.897-3.883-.53 0-1.031.104-1.491.295a5.986 5.986 0 0 0-1.912-.321 5.929 5.929 0 0 0-5.293 3.246 5.005 5.005 0 0 0-6.674 2.475v-.003c-.035.078-.08.15-.11.231-.117-.008-.233-.018-.352-.019-2.92-.001-5.288 2.353-5.29 5.261 0 .376.043.743.12 1.096-1.237.67-2.083 1.955-2.083 3.453a3.95 3.95 0 0 0 2.42 3.64 3.855 3.855 0 0 0 3.208-.077c.066-.031.134-.057.198-.092.264.474.604.9 1.005 1.262.031.028.07.05.102.077.208.178.43.337.666.478 1.36 1.758 4.434 7.397 4.43 22.357l1.963.001 1.161.003h1.964l1.737.002c.003-11.116 5.634-19.543 7.62-22.17.293.538.762.963 1.331 1.203.038.015.073.037.111.051l.025.007c.286.102.593.16.914.16.157 0 .308-.019.456-.046.056-.009.11-.018.165-.03a2.972 2.972 0 0 0 .599-.222l.005-.003a2.694 2.694 0 0 0 1.495-2.405c0-.109-.02-.212-.032-.318a4.392 4.392 0 0 0 1.924-3.63zm-19.023 15.985c-.468-3.338-1.123-5.917-1.829-7.91.441-.05.86-.17 1.248-.347a4.178 4.178 0 0 0 1.213-.83c.07.048.148.085.221.129a207.947 207.947 0 0 0-.853 8.958zm3.152-.285c.251-3.302.554-6.188.8-8.277a3.923 3.923 0 0 0 2.556-2.338c.12.077.248.141.376.206.324.165.672.286 1.037.362a42.583 42.583 0 0 0-4.769 10.047zM28.11 22.495a5.664 5.664 0 0 0-4.055 2.361c2.71 1.591 4.514 5.637 5.152 8.749a10.673 10.673 0 0 1 2.326 3.544c.966.314 1.952.686 2.67.566l-1.34-4.926c-1.544-.153-2.984-1.614-4.108-2.382 1.806.615 2.376 1.05 3.656.741-.638-2.82-.523-6.875.043-9.286.112 1.898.22 3.807 1.196 6.371l2.976-1.604-2.525 3.245c-.152 1.436.041 2.605.492 4.246 1.016-.77 2.893-.867 4.699-.253-1.882.104-3.495.662-4.248 1.894.637 2.82 1.608 5.382 3.713 9.074-1.391-1.59-2.787-3.172-4.103-5.48-.908-.309-1.955-.875-2.904-1.622.361 1.112.358 2.357.178 3.658-.1.717-.29 1.428-.528 2.118.296.114.602.218.911.324.816 1.297 1.867 2.53 3.016 3.479-.054 2.135.07 4.21.354 6.22-1.596-1.783-3.284-3.382-4.988-4.715a14.125 14.125 0 0 0-.682-4.326c1.094-2.013 1.45-4.958.948-6.5-.5-1.543-1.389-2.94-2.498-3.949-.451-2.447-1.285-5.004-3.306-7.19-3.147-2.956-5.91-2.043-7.784.265-1.322-.708-2.996-1.151-4.55-.716-1.552.435-2.983 1.748-3.816 4.567-.583 3.586 1.05 5.628 2.676 7.942-1.871 2.313-1.45 5.243-.261 8.614 1.141 3.8 5.526 5.194 8.294 4.294 1.794 2.828 6.352 4.749 8.787 2.825.786-.62 1.345-1.528 1.7-2.587 1.292 1.01 5.264 4.964 8.594 9.958 3.508 5.262 6.379 11.621 7.647 14.565l3.143.007c-.773-1.576-4.753-12.092-8.906-17.028-2.748-3.267-2.823-9.754-2.765-10.716.977.24 1.98.385 2.741.153 2.768-.899 4.208-5.9 3.246-9.353 2.233-2.056 3.437-6.407 2.439-9.48-.999-3.073-3.41-5.118-6.468-5.19-.48-2.743-1.882-5.69-3.93-6.88-1.573-.704-3.034-.751-4.266-.348-2.053.672-3.448 2.59-3.566 4.75zM14.29 30.79c2.08 1.023 5.056 3.453 6.68 5.757 1.02-.897 1.644-1.667 2.33-3.589-.29 1.794-.583 3.587-1.436 4.997l2.684 4.224c.66-.662 1.05-2.152 1.54-3.331.104 1.665-.187 3.458-.645 4.74.832 2.56 1.102 4.737 1.372 6.914-1.331-4.097-2.559-6.53-4.181-8.833-1.353-.127-2.768.9-4.017 2.437.687-1.922 1.936-3.46 3.122-3.845-.895-1.408-1.623-2.304-2.747-3.071l-3.891.132 2.997-1.54c-1.228-2.433-2.518-3.712-3.808-4.992z"/>
        <path stroke="#FFF" stroke-linecap="square" stroke-width="3" d="M15.44 78.5h50.12M65.5 38.443v38.114"/>
        <path stroke="#000" stroke-width="3" d="M1.5 1.5h141v186H1.5z"/>
        <g fill="#FFF" fill-rule="nonzero">
            <path d="M55.134 94.561c.025.081-.035.197-.179.351-.144.154-.218.262-.23.31-.137.519-.044 1.46.401 2.747l.188.52a.48.48 0 0 1 .118-.054c.177-.057.37-.034.577.069.207.104.331.229.375.374.034.108-.056.227-.26.334-.16.084-.475.197-.495.247-.056.141.299.846.452 1.27.195.539.416.929.613 1.159.161.188.25.332.273.404.057.181.028.37-.087.571a.87.87 0 0 1-.496.408c-.41.137-.753.05-.994-.26-.047-.061-.216-.36-.479-.882a6.265 6.265 0 0 1-.284-.695l-.194-.548c-.141-.361-.332-.84-.406-.865-.237-.082-1.42.626-2.27 1.125-.732.431-2.139 1.222-2.149 1.329-.003.028.33.547.703 1.364.298.654.666 1.003.95 1.124a.216.216 0 0 1 .105.108c.1.225-.059.43-.474.621-.384.178-.73.222-1.042.133-.192-.055-1.099-2.226-1.695-2.455-.083-.032-.435.054-.636-.046a.941.941 0 0 1-.438-.415c-.052-.102-.016-.206.109-.316.125-.11.348-.258.363-.317.013-.051-.125-.328-.229-.631a5.678 5.678 0 0 0-.236-.61c-.734-1.493-1.094-2.5-1.06-3.016.028-.422.286-.754.761-.974.292-.136.598-.194.914-.174.316.02.518.13.605.329.045.104.056.259.027.455a4.785 4.785 0 0 0-.055.457c.035.833.237 1.801.692 2.798.075.163.13.296.137.298.028.009.351-.211.753-.463 1.25-.783 3.583-1.56 3.723-1.847.185-.378-.688-2.184-.763-2.588-.25-1.354-.034-2.155.626-2.375.394-.131.753-.128 1.074.004.324.133.526.341.612.622zM61.521 101.301c.036.157-.096.35-.389.579-.294.23-.548.374-.767.43-.24.062-.516.05-.831-.032-.315-.082-.503-.227-.561-.436-.051-.183.017-.375.207-.578.19-.203.409-.337.656-.4.303-.078.642-.086.998-.014.41.082.639.239.687.451zM71.821 95.725c.046 1.36-.351 2.525-1.106 3.514-.848 1.11-2 1.732-3.532 1.921a5.935 5.935 0 0 1-1.428-.021c-1.148-.14-2.045-.497-2.676-1.136-.543-.549-.935-1.347-1.152-2.402-.282-1.37-.098-2.674.598-3.887.813-1.417 2.178-2.292 4.015-2.5 1.614-.184 2.958.271 3.954 1.306.86.89 1.285 1.967 1.327 3.205zm-1.763-.042c-.125-1.962-1.062-3.116-2.817-3.306a2.827 2.827 0 0 0-.625.012c-.722.083-1.42.412-2.056.986-1.017.917-1.318 2.377-.975 4.313.031.177.127.415.272.714.327.674.708 1.148 1.141 1.405.502.298 1.173.393 2.021.288 1.154-.143 1.985-.683 2.512-1.66.411-.764.594-1.686.527-2.752zM87.157 101.62c-.057.229-.278.397-.658.512-.38.115-.71.143-.994.08a2.99 2.99 0 0 1-1.145-.514c-.34-.25-.769-.663-1.021-.722-.878-.203-2.582.275-3.58.167-.833-.091-1.513-.29-2.037-.622-.613-.389-.913-.925-.877-1.604.021-.406.301-.851.816-1.328.177-.164 1.353-.796 1.412-1.043.099-.416-.983-2.054-.938-2.705.058-.83.448-1.482 1.193-1.936.745-.453 1.707-.618 2.858-.468.837.109 1.508.373 1.979.777.5.428.692.952.588 1.539-.105.596-.604 1.192-1.453 1.798-.45.321-2.165 1.108-2.228 1.361-.018.074.593.706 1.299 1.452.742.783 1.169 1.208 1.329 1.237.103.018.413-.063.94-.231.526-.168.8-.27.81-.316.047-.231-.306-.429-1.064-.569-.257-.047-.669.073-.892.045-.283-.036-.563-.414-.526-.648.069-.438.475-.604 1.212-.472a9.458 9.458 0 0 1 1.981.606c.929.39 1.36.76 1.28 1.09-.146.606-2.593 1.504-2.593 1.504-.015.06.688.531 1.011.603.089.02.231.025.427.013.196-.014.346-.009.446.015.328.076.468.205.425.379zm-4.988-1.64c.031-.111-1.968-2.307-2.303-2.348-.196-.023-.787.57-.929.709-.312.304-.477.612-.502.923-.038.462.409.725 1.334.824.285.03.688.032 1.213.01.525-.022 1.187-.118 1.187-.118zm.996-6.645c.032-.215-.04-.404-.219-.568-.179-.164-.424-.269-.733-.31a2.344 2.344 0 0 0-1.625.354c-.487.314-.746.692-.788 1.125-.031.32.015.656.109.994.114.409.378.892.519.909.299.038 1.131-.61 1.688-1.077.627-.525.985-.997 1.049-1.427zM99.435 105.232c-.262.515-.84.71-1.707.643a6.558 6.558 0 0 1-2.11-.542c-.657-.286-1.389-.728-2.193-1.321-.997-.735-1.447-1.309-1.3-1.738a.548.548 0 0 1 .359-.342.843.843 0 0 1 .577.008c.299.107.536.321.718.598.295.448.481.708.505.74.234.315.95.681 1.918 1.104.862.377 1.36.423 1.509.106.125-.266-.097-.864-.726-1.67-.427-.547-.928-1.094-1.395-1.631-.605-.697-1.029-1.307-1.256-1.802-.299-.653-.354-1.291-.135-1.916.275-.785.856-1.371 1.742-1.739.962-.4 2.007-.393 3.074.058.918.388 1.61.912 2.067 1.549.457.637.637 1.358.467 2.011-.063.245-.219.665-.313 1.159-.028.148-.05.271-.084.338a1.635 1.635 0 0 1-.589.673c-.31.194-.646.217-1.007.045a1.059 1.059 0 0 1-.484-.484c-.121-.229-.15-.422-.079-.577.051-.112.164-.264.334-.452.171-.188.281-.336.333-.448.538-1.163.268-2.002-.824-2.471-.607-.26-1.199-.284-1.759-.074-.56.21-.923.546-1.097.997-.245.636.021 1.507.764 2.451.656.834 1.422 1.697 2.057 2.563.685.936.875 1.692.634 2.164z"/>
            <g>
                <path d="M49.865 121.951c0 .652-.389 1.174-1.167 1.637-.779.462-1.621.714-2.522.713-1.302-.002-2.271-.411-2.89-1.372-.503-.781-.753-1.879-.753-3.184 0-1.324.309-2.443.907-3.499.73-1.287 1.731-2.049 3.012-2.04.635.004 1.194.175 1.66.532.521.399.846.965.969 1.652.102.566.153.81.153.81s-.307 2.258-.922 2.188a.85.85 0 0 1-.508-.258.717.717 0 0 1-.229-.528c0-.111.052-.267.16-.471.108-.204.163-.372.163-.498 0-.651-.078-1.11-.215-1.361-.186-.34-.545-.535-1.086-.564-.551-.03-1.065.322-1.531.987-.388.554-.647 1.125-.766 1.726a9.053 9.053 0 0 0-.183 1.723c0 .851.078 1.472.229 1.859.246.627.742 1.054 1.485 1.258.224.062.409.094.552.101.368.018.764-.082 1.164-.291.355-.186.638-.412.827-.663.112-.148.181-.348.201-.593l-.062-.041c-.728-.065-1.303-.065-1.691.037-.121.032-.25.086-.369.122a.994.994 0 0 1-.383.045.814.814 0 0 1-.601-.331 1.04 1.04 0 0 1-.216-.631c0-.189.123-.336.354-.411.148-.048.64-.053 1.445-.028.733.021 1.255.049 1.553.082.839.093 1.26.534 1.26 1.292zM60 123.996v.043c0 .123-.385.181-.61.181-.174 0-.396-.039-.466-.121-.104-.122-.782-.531-2.047-1.07-1.266-.54-2.109-.861-2.519-.872-.072-.002-.061-.008-.171-.008-.14 0-.186.004-.186.002v.411c0 .139-.078.323-.031.538.056.258.053.419.114.473.176.153.25.242.25.278 0 .108-.085.197-.228.263a1.182 1.182 0 0 1-.499.097c-.39-.001-.695-.086-.91-.248-.199-.15-.085-1.769-.31-2.004-.046-.048-.446-.066-.677-.178-.265-.127-.399-.271-.399-.409 0-.282.841-.373 1.028-.554.071-.069.083-.724.108-1.339.027-.697.04-1.22.077-1.499.05-.374.14-.965.232-1.77l-.124-.002c-.41.002-.615-.222-.615-.68 0-.395.126-.651.369-.745.169-.065.408-.114.522-.193.193-.134.367-.39.485-.463.118-.073.304-.111.56-.111.185 0 .276.11.276.324 0 .067.129.1.385.101 1.199.005 2.219.337 3.059.959 1.029.762 1.552 1.829 1.552 3.093 0 .971-.271 1.797-.799 2.269-.359.32-1.906 1.013-1.906 1.013-.002.062 1.522.647 2.209.966.816.376 1.271.844 1.271 1.255zm-2.175-5.558c0-.759-.34-1.37-1.003-1.796-.534-.343-1.163-.531-1.883-.542-.093-.001-.6-.022-.662.048-.098.109-.097 1.258-.292 2.298-.118.625-.391 2.302-.232 2.525.137.192.967.254 1.111.257.124.002.303-.021.54-.072.679-.149 1.234-.374 1.667-.827a2.634 2.634 0 0 0 .754-1.891zM69.894 119.616c0 1.396-.37 2.492-1.092 3.346-.811.958-1.922 1.322-3.336 1.325-.4.001-.832-.045-1.292-.125-1.02-.179-1.758-.48-2.198-1.005-.379-.451-.569-1.096-.569-2.077 0-1.273.373-2.845 1.092-4.239.843-1.635 1.978-2.603 3.413-2.611 1.261-.008 2.265.714 3.014 1.929a6.433 6.433 0 0 1 .968 3.457zm-1.477.038c0-2.03-.699-3.429-2.06-3.827a1.512 1.512 0 0 0-.492-.05c-.574.027-1.153.367-1.721 1.001-.913 1.019-1.369 2.814-1.369 4.595 0 .163.044.382.124.648.178.601.439.986.784 1.2.399.247.985.359 1.754.328 1.045-.042 1.839-.415 2.365-1.272.411-.671.615-1.52.615-2.623zM78.886 121.181c0 .202-.052.454-.155.753a3.283 3.283 0 0 1-1.444 1.767c-.641.385-1.354.56-2.122.562-1.26.003-2.231-.438-2.904-1.243-.584-.698-.876-1.597-.876-2.795 0-.992.172-1.998.507-2.955.381-1.088.938-1.969 1.676-2.567.581-.472 1.179-.686 1.784-.686.871 0 1.53.314 1.981.913.367.487.554 1.105.554 1.914 0 .364-.11.841-.322 1.445-.258.738-.543 1.162-.861 1.199-.358.042-.851-.399-.814-.546.012-.048.262-.205.43-.379.206-.213.307-.65.307-1.238 0-.569-.065-1.036-.199-1.407-.203-.562-.544-.831-1.015-.809-.328.016-.687.218-1.077.629-.296.312-.55.664-.752 1.048-.505.962-.752 2.171-.752 3.524 0 1.967.798 2.876 2.397 2.802.686-.032 1.247-.253 1.629-.672.164-.18.417-.579.724-1.161.218-.413.446-.642.691-.666a.515.515 0 0 1 .431.149c.12.119.182.259.182.419zM87.462 122.36c.037.166-.037.413-.107.581-.093.222-.216.34-.37.34a.834.834 0 0 1-.176-.031.793.793 0 0 0-.179-.031c-.44.001-1.078.176-1.913.529-.835.354-1.473.535-1.913.536-1.65.002-2.475-1.608-2.475-4.173 0-2.019.065-3.343.154-4.24.012-.119.015-.185.015-.192 0-.056-.01-.135-.03-.238a1.36 1.36 0 0 1-.031-.223c0-.351.259-.553.767-.628.784-.115 1.58-.234 2.367-.333a19.28 19.28 0 0 1 2.322-.168c.297 0 .56.023.784.078.307.075.462.184.462.33 0 .216-.252.337-.754.34-.062 0-.156-.003-.284-.012a4.427 4.427 0 0 0-.285-.013c-.831.006-2.013.209-3.396.479-.078.015-.159.026-.231.046-.072.02-.122.079-.153.179-.113.368-.168 1.088-.168 2.387 0 .195.097.285.292.267.266-.026.65-.126 1.153-.293.502-.168.886-.261 1.153-.279.297-.021.865.014 1.03.178.123.123.153.49.153.562 0 .256-.076.402-.229.432-.154.029-.378.112-.492.093-.062-.011-.197-.068-.34-.06-.359.022-.8.102-1.292.245-.416.121-.849.264-1.276.382-.061.017-.115.031-.161.046s-.083.084-.1.198a3.323 3.323 0 0 0-.031.465c0 .829.018 1.368.046 1.538.109.656.384 1.019.845.999.39-.017.958-.208 1.705-.507.747-.299 1.342-.451 1.783-.456.698-.009 1.273.27 1.355.647zM97 123.557v.096c0 .278-.455.417-.68.416-.174-.001-.431-.118-.5-.293-.145-.361-.8-1.233-2.066-2.277-1.266-1.045-2.116-1.533-2.526-1.536-.072-.001.002-.006-.105-.002-.138.005-.122.017-.122.017v.708c0 .246-.148.579-.102.994.056.503.018.837.081.951.173.313.231.517.231.597a.86.86 0 0 1-.237.594.68.68 0 0 1-.503.236c-.39 0-.695-.197-.912-.554-.197-.323.024-3.423-.31-3.753-.044-.044-.448-.067-.676-.215-.265-.171-.401-.37-.401-.572 0-.413.834-.674 1.03-.902.098-.115.083-.707.107-1.13.027-.478.042-.8.078-.963.049-.223.136-.565.228-.969l-.123-.002c-.41.006-.615-.107-.615-.323 0-.186.125-.297.369-.339.172-.029.38-.039.523-.084.186-.059.365-.163.483-.192.118-.029.306-.043.562-.043.185 0 .276.043.276.131 0 .027.129.042.385.043 1.199.003 2.219.138 3.059.441 1.032.373 1.553.945 1.553 1.737 0 .608-.271 1.008-.799 1.59-.359.396-1.903 1.312-1.906 1.364-.01.148 1.609 1.111 2.279 1.693.824.717 1.339 1.615 1.339 2.541zm-2.313-7.297c0-.462-.339-.799-1.005-1.031-.534-.187-1.161-.283-1.881-.291-.093-.001-.61-.038-.665.022-.044.049-.096.622-.291 1.255-.117.379-.472 1.592-.231 1.947.146.216.967.333 1.111.334.124 0 .303-.04.54-.116.678-.22 1.236-.595 1.667-.902.499-.357.755-.763.755-1.218zM105.17 122.582c0 .586-.372 1.007-1.092 1.33a4.655 4.655 0 0 1-1.922.412c-.646 0-1.412-.152-2.274-.501-1.072-.433-1.614-.981-1.614-1.561 0-.216.067-.399.2-.546a.572.572 0 0 1 .476-.204c.277.018.532.182.769.437.377.406.615.633.646.66.281.254 1.004.386 1.937.432.83.041 1.246-.125 1.246-.508 0-.321-.393-.833-1.168-1.474-.519-.429-1.096-.861-1.629-1.303-.696-.577-1.206-1.137-1.523-1.624-.419-.643-.629-1.013-.629-1.55 0-.675.283-1.222.829-1.706.593-.525 1.332-.815 2.213-.813.758.002 1.398.164 1.921.536.522.372.892.943 1 1.614.041.251.074.685.184 1.19.033.152.061.275.061.351 0 .34-.067.617-.184.824-.156.277-.394.386-.722.314-.185-.04-.361-.152-.53-.335-.169-.183-.254-.35-.254-.51 0-.116.031-.285.093-.502.062-.217.092-.383.092-.498 0-1.2-.462-1.819-1.384-1.872-.513-.029-.943.118-1.292.427-.349.309-.522.657-.522 1.062 0 .573.443 1.15 1.323 1.958.759.698 1.649 1.389 2.445 2.055.866.729 1.304 1.368 1.304 1.905z"/>
            </g>
        </g>
    </g>
</svg>
