<svg xmlns="http://www.w3.org/2000/svg" width="120" height="120" viewBox="0 0 120 120">
    <g fill="none" fill-rule="evenodd">
        <g>
            <circle cx="60" cy="60" r="57.5" stroke="#000" stroke-width="5"/>
            <path fill="#000" fill-rule="nonzero" d="M80.467 50.133L77.318 28H42.682l-3.149 22.133c-2.886 12.934 6.298 25.334 19.155 26.134v13.066H45.175V92h29.52v-2.667H61.311V76.267c12.857-.8 22.041-13.2 19.155-26.134zM60 70.267c-4.592 0-8.922-2.134-11.808-5.734-1.574-2-2.624-4.4-3.017-6.8l2.624-.533c.393 2 1.18 4 2.492 5.733 2.362 3.067 5.904 4.8 9.709 4.8 1.443 0 2.755-.266 4.198-.666l.919 2.533c-1.706.4-3.411.667-5.117.667z"/>
        </g>
        <path stroke="#979797" d="M-167.5-172.5h739v631h-739z"/>
    </g>
</svg>
