<svg xmlns="http://www.w3.org/2000/svg" width="120" height="120" viewBox="0 0 120 120">
    <g fill="none" fill-rule="evenodd">
        <circle cx="60" cy="60" r="60" fill="#14B690"/>
        <path fill="#FFF" fill-rule="nonzero" d="M31.546 65.618c-.126.044-.294.102-.406.187L20.41 34.641l33.744-11.619c.045.267.132.52.219.772 1.318 3.827 5.499 5.868 9.323 4.552 3.824-1.317 5.862-5.5 4.544-9.327a4.838 4.838 0 0 0-.302-.743l5.42-1.866L86.118 53.46c-.647.035-1.363.14-2.035.371-3.614 1.245-5.5 5.187-4.269 8.762C81.044 66.169 85 68.1 88.571 66.87a6.335 6.335 0 0 0 1.832-.96l1.187 3.449L38.641 87.59 35.89 79.6c.126-.044.309-.06.435-.103 3.824-1.317 5.862-5.5 4.544-9.327a7.315 7.315 0 0 0-9.323-4.552zm39.441-8.453a4.877 4.877 0 0 0 3.03-6.217 4.877 4.877 0 0 0-6.216-3.035 4.877 4.877 0 0 0-3.03 6.218c.926 2.55 3.695 3.903 6.216 3.034zM54.523 41.43c-1.144-3.322-4.775-5.13-8.137-3.972a6.404 6.404 0 0 0-3.966 8.14c1.144 3.322 4.775 5.13 8.137 3.972 3.32-1.143 5.11-4.817 3.966-8.14zm2.755 33.393a5.56 5.56 0 0 0-3.62-10.514 5.56 5.56 0 0 0 3.62 10.514z"/>
        <path fill="#14B690" d="M32 37h52v49H32z"/>
        <path fill="#FFF" fill-rule="nonzero" d="M87.556 69.915c.133 0 .31 0 .444.044V37H52.311c.045.267.045.534.045.8 0 4.048-3.29 7.34-7.334 7.34s-7.333-3.292-7.333-7.34c0-.266 0-.533.044-.8H32v39.187c.622-.178 1.333-.312 2.044-.312 3.823 0 6.89 3.114 6.89 6.895 0 3.78-3.112 6.894-6.89 6.894A6.335 6.335 0 0 1 32 89.353V93h56v-8.451c-.133 0-.311.044-.444.044-4.045 0-7.334-3.291-7.334-7.339a7.315 7.315 0 0 1 7.334-7.339zM47.51 74.763a4.877 4.877 0 0 1-4.889-4.892 4.877 4.877 0 0 1 4.89-4.893A4.877 4.877 0 0 1 52.4 69.87c-.044 2.713-2.222 4.892-4.889 4.892zm10.445-20.238c0-3.514 2.844-6.405 6.4-6.405 3.51 0 6.4 2.847 6.4 6.405 0 3.514-2.845 6.405-6.4 6.405-3.512 0-6.4-2.891-6.4-6.405zm8.266 32.47a5.56 5.56 0 0 1 0-11.12 5.56 5.56 0 0 1 0 11.12z"/>
    </g>
</svg>
