<svg xmlns="http://www.w3.org/2000/svg" width="121" height="120" viewBox="0 0 121 120">
    <g fill="none" fill-rule="evenodd">
        <circle cx="60" cy="60" r="60" fill="#14B690"/>
        <circle cx="61" cy="60" r="57.5" stroke="#14B690" stroke-width="5"/>
        <path fill="#FFF" fill-rule="nonzero" d="M76.525 35c-7.178 0-13.337 4.337-16.028 10.532C57.807 39.337 51.657 35 44.48 35 34.823 35 27 42.835 27 52.5c0 5.758 2.823 10.826 7.104 14.015L60.497 87l26.4-20.485C91.181 63.325 94 58.258 94 52.5 94 42.836 86.172 35 76.525 35zm.532 28.295h-9.23l-2.562-6.937-5.626 17.339-5.652-12.677-.565 1.615h-9.478v-2.642h7.606l2.14-6.119 5.56 12.47 5.853-18.039 4.562 12.348h7.393v2.642h-.001z"/>
    </g>
</svg>
