<svg xmlns="http://www.w3.org/2000/svg" width="120" height="120" viewBox="0 0 120 120">
    <g fill="none" fill-rule="evenodd">
        <circle cx="60" cy="60" r="60" fill="#14B690"/>
        <circle cx="60" cy="60" r="57.5" stroke="#14B690" stroke-width="5"/>
        <g fill="#FFF" fill-rule="nonzero" transform="translate(16 33)">
            <path d="M85.718 1.658C81.932-.195 73.7 20.845 64.384 21.941c-9.317 1.096-16.858-.528-17.698 1.245-.84 1.771-1.23 2.025 4.457 2.192 5.688.169 8.553 1.295 6.733 5.481-1.817 4.188-7.588 21.173-7.588 21.173s-.037 1.469 2.034 1.225c2.07-.243 5.477-15.907 12.443-17.354 6.967-1.444 9.021 7.095 10.336 7.568 1.314.473 4.189-.076 2.121-3.388s-5.949-13.099-4.533-15.358c1.412-2.256 13.638-17.911 13.638-17.911s3.179-3.302-.609-5.156z"/>
            <circle cx="61.332" cy="9.069" r="8.086"/>
            <path d="M1.268 17.794c2.813-3.142 18.348 13.261 27.395 10.774s15.423-6.825 16.871-5.5c1.442 1.325 1.899 1.416-3.308 3.709-5.207 2.292-7.436 4.414-4.178 7.607 3.257 3.197 14.989 16.771 14.989 16.771s.585 1.348-1.426 1.898c-2.01.553-11.054-12.684-18.054-11.402-7.003 1.274-5.693 9.962-6.735 10.894-1.042.935-3.91 1.509-3.238-2.338.672-3.849.589-14.376-1.569-15.937C19.856 32.711 2.644 22.8 2.644 22.8s-4.188-1.865-1.376-5.006z"/>
            <circle cx="27.257" cy="19.112" r="8.086"/>
        </g>
    </g>
</svg>
