<svg xmlns="http://www.w3.org/2000/svg" width="120" height="120" viewBox="0 0 120 120">
    <g fill="none" fill-rule="evenodd">
        <path stroke="#979797" d="M-471.5-369.5h739v1049h-739z"/>
        <g>
            <circle cx="60" cy="60" r="57.5" stroke="#000" stroke-width="5"/>
            <path fill="#000" fill-rule="nonzero" d="M77.477 63.907a1.835 1.835 0 0 1-1.845 1.826 1.835 1.835 0 0 1-1.845-1.826v-.928c0-1.008.826-1.826 1.845-1.826 1.02 0 1.845.818 1.845 1.826v.928zm-4.987 0a1.835 1.835 0 0 1-1.845 1.826 1.835 1.835 0 0 1-1.844-1.826v-.928c0-1.008.825-1.826 1.844-1.826 1.02 0 1.845.818 1.845 1.826v.928zm-4.987 0a1.835 1.835 0 0 1-1.844 1.826 1.835 1.835 0 0 1-1.845-1.826v-.928c0-1.008.826-1.826 1.845-1.826 1.018 0 1.844.818 1.844 1.826v.928zm-4.987 0a1.835 1.835 0 0 1-1.844 1.826 1.835 1.835 0 0 1-1.845-1.826v-.928c0-1.008.826-1.826 1.845-1.826 1.018 0 1.844.818 1.844 1.826v.928zM61.034 74.45h-8.89c-.79 0-1.43-.633-1.43-1.415s.64-1.415 1.43-1.415h8.89c.79 0 1.43.633 1.43 1.415s-.64 1.415-1.43 1.415zM49.417 63.907a1.835 1.835 0 0 1-1.845 1.826 1.835 1.835 0 0 1-1.844-1.826v-.928c0-1.008.826-1.826 1.844-1.826 1.02 0 1.845.818 1.845 1.826v.928zM46.073 74.45h-8.89c-.789 0-1.43-.633-1.43-1.415s.641-1.415 1.43-1.415h8.89c.79 0 1.43.633 1.43 1.415s-.64 1.415-1.43 1.415zM35.753 62.98c0-1.008.827-1.826 1.846-1.826 1.019 0 1.845.818 1.845 1.826v.928a1.835 1.835 0 0 1-1.845 1.826 1.835 1.835 0 0 1-1.845-1.826v-.928zm8.677 0v.928a1.835 1.835 0 0 1-1.844 1.826 1.835 1.835 0 0 1-1.845-1.826v-.928c0-1.008.826-1.826 1.845-1.826 1.019 0 1.844.818 1.844 1.826zm9.974 0v.928a1.835 1.835 0 0 1-1.845 1.826 1.835 1.835 0 0 1-1.844-1.826v-.928c0-1.008.825-1.826 1.844-1.826 1.02 0 1.845.818 1.845 1.826zM40.972 45.322c1.669 0 3.154.777 4.109 1.983a5.228 5.228 0 0 1 4.109-1.983c2.882 0 5.218 2.313 5.218 5.165 0 2.853-2.336 5.165-5.218 5.165a5.228 5.228 0 0 1-4.11-1.983 5.227 5.227 0 0 1-4.108 1.983c-2.882 0-5.218-2.312-5.218-5.165 0-2.852 2.336-5.165 5.218-5.165zM87.173 38H32.827C29.609 38 27 40.582 27 43.767v33.321c0 3.185 2.609 5.767 5.827 5.767h54.346c3.218 0 5.827-2.582 5.827-5.767V43.767C93 40.582 90.391 38 87.173 38z"/>
        </g>
    </g>
</svg>
