<svg xmlns="http://www.w3.org/2000/svg" width="120" height="120" viewBox="0 0 120 120">
    <g fill="none" fill-rule="evenodd">
        <path stroke="#979797" d="M-473.5-218.5h739v572h-739z"/>
        <g>
            <circle cx="60" cy="60" r="57.5" stroke="#000" stroke-width="5"/>
            <g fill="#000" fill-rule="nonzero">
                <path d="M76.694 63.748l-.018-.034c-2.452 1.58-7.973 4.938-11.78 5.754a15.58 15.58 0 0 1-3.284.347c-4.197 0-8.066-1.603-11.369-3.103-.21-.098-.618-.272-1.185-.516-8.772-3.773-14.545-6.672-18.343-8.962.14 6.007.324 20.674 3.867 23.886 3.222 2.919 22.64 12.707 28.785 11.742 6.119-.96 26.694-12.566 27.762-20.081.355-3.549.273-12.784.112-18.362-3.469 2.59-8.334 5.637-14.547 9.33zM35.607 79.777a.718.718 0 0 1-.835-.572c-1.165-6.257-1.663-11.41-1.663-17.222 0-.397.32-.72.716-.72.396 0 .716.322.716.72 0 5.719.49 10.791 1.638 16.958a.719.719 0 0 1-.572.836zm3.894 2.328a.747.747 0 0 1-.287.059.688.688 0 0 1-.63-.405c-.543-1.185-1.656-14.42-1.771-17.81a.714.714 0 1 1 1.426-.051c.154 4.508 1.279 16.294 1.647 17.274a.735.735 0 0 1-.385.933zm3.21 1.47a.72.72 0 0 1-.805-.614c-.26-1.953-1.647-13.459-1.497-17.363a.733.733 0 0 1 .742-.688.716.716 0 0 1 .686.744c-.135 3.548 1.12 14.37 1.487 17.117a.715.715 0 0 1-.612.805zm3.098 1.9h-.047a.716.716 0 0 1-.71-.674c-.166-2.635-.834-14.034-.834-17.513 0-.393.319-.716.714-.716.396 0 .715.322.715.716 0 3.46.695 15.247.832 17.425a.72.72 0 0 1-.67.761zm3.67 1.139a.715.715 0 0 1-.714-.716c0-1.776-.962-15.003-1.285-17a.72.72 0 0 1 .593-.821.717.717 0 0 1 .82.593c.325 2.026 1.3 15.43 1.3 17.228 0 .396-.319.716-.714.716zm3.373 1.796a.715.715 0 0 1-.714-.716c0-2.059-.65-14.874-1.056-16.958a.715.715 0 1 1 1.404-.274c.453 2.335 1.08 15.476 1.08 17.233 0 .394-.32.715-.714.715zm3.371 1.655a.622.622 0 0 1-.09.008.716.716 0 0 1-.709-.628c-.215-1.715-.762-15.257-.65-17.44a.708.708 0 0 1 .749-.68c.396.02.7.357.679.753-.104 2.06.436 15.564.641 17.19a.719.719 0 0 1-.62.797zm3.428.481a.715.715 0 0 1-.716-.717c0-1.428-.222-6.03-.419-10.093-.163-3.394-.306-6.329-.306-7.111a.716.716 0 0 1 1.43 0c0 .749.147 3.804.304 7.041.197 4.08.423 8.7.423 10.163a.717.717 0 0 1-.716.717z"/>
                <path d="M95.084 46.271c-.421-.42-1.143-.947-2.117-1.554-.935 1.972-2.357 4.256-4.265 6.844l-.087.121a73.26 73.26 0 0 1-3.526 4.386c2.2-1.431 4.322-2.9 6.058-4.275 2.381-1.884 4.042-3.594 4.193-4.803.036-.29-.037-.496-.256-.719zM51.13 64.753c3.338 1.518 6.835 2.911 10.482 2.911.939 0 1.883-.091 2.84-.297 4.036-.868 10.544-5.101 11.97-6.052l.288-.195c2.546-1.768 6.098-5.456 9.16-9.379 2.177-2.792 4.102-5.699 5.235-8.118.161-.34.3-.67.426-.99.143-.358.266-.703.362-1.03.568-1.923.317-3.27-1.194-3.546-1.668-.302-5.435-.484-8.18-1.026-.521-.103-1-.221-1.426-.353a7.133 7.133 0 0 1-.733-.267c-8.654-3.799-16.264-7.546-20.13-7.546-.323 0-.625.025-.894.08-5.482 1.118-25.95 12.96-33.205 19.653-1.653 1.523 1.144 4.036 5.402 6.634 7.054 4.305 18.108 8.842 19.598 9.52z"/>
            </g>
        </g>
    </g>
</svg>
