<svg xmlns="http://www.w3.org/2000/svg" width="120" height="120" viewBox="0 0 120 120">
    <g fill="none" fill-rule="evenodd">
        <circle cx="60" cy="60" r="60" fill="#14B690"/>
        <g fill="#FFF" fill-rule="nonzero">
            <path d="M65.923 85.42c-.077-1.473-.308-3.023-.461-4.495-.385-2.945-1.693-8.758-2-9.842-.462-1.628-1.231-3.178-2.539-4.185a6.397 6.397 0 0 0-2.308-1.085c-1.692-.466-3.461-1.086-5.153-1.473-.308-.078-.693-.155-1-.233-.693-.154-1.154-.077-1.462.156-1.615 2.867-4.538 4.804-7.846 4.804s-6.23-1.937-7.846-4.804c-.385-.233-.846-.31-1.462-.156-.384.078-.77.155-1.077.233-1.692.465-3.384 1.007-5.077 1.472a6.246 6.246 0 0 0-2.384 1.163c-1.231 1.008-2 2.48-2.462 4.108-.308 1.084-1.615 6.974-2 9.842a42.31 42.31 0 0 0-.461 4.495c0 .465-.154 1.007-.154 1.55v1.085c.077.542.23 1.085.538 1.55.923 1.007 2.693.775 3.846.852 3.077.078 6.077.078 9.154.078 3.154 0 6.231-.078 9.385-.155 3.154.077 6.23.077 9.384.155 3.077 0 6.077 0 9.154-.078 1.231 0 3 .155 3.846-.852.924-1.085.462-2.945.385-4.185z"/>
            <path d="M99.615 85.188c-.077-1.473-.307-3.023-.461-4.495-.385-2.946-1.692-8.758-2-9.843-.462-1.628-1.23-3.178-2.539-4.185a6.397 6.397 0 0 0-2.307-1.085c-1.693-.465-3.462-1.085-5.154-1.473-.308-.077-.692-.155-1-.232-.692-.155-1.154-.078-1.462.155-1.615 2.867-4.538 4.805-7.846 4.805S70.616 66.897 69 64.03c-.385-.233-.846-.31-1.462-.155-.384.077-.769.155-1.076.232-1.693.465-3.385 1.008-5.077 1.473A6.246 6.246 0 0 0 59 66.742c-1.23 1.008-2 2.48-2.462 4.108-.307 1.085-1.615 6.975-2 9.842a42.31 42.31 0 0 0-.461 4.495c0 .465-.154 1.008-.154 1.55v1.085c.077.543.23 1.085.539 1.55.923 1.008 2.692.775 3.846.853 3.077.077 6.077.077 9.154.077 3.153 0 6.23-.077 9.384-.155 3.154.078 6.23.078 9.385.155 3.077 0 6.077 0 9.154-.077 1.23 0 3 .155 3.846-.853.923-1.085.461-2.945.384-4.185zM61.462 59.302c3.076.853 7.615-.155 10.307-1.86.154.155.308.233.462.31.307.155.538.388.846.543.385.155.846.387 1.461.62 0 0 .077 0 .077.078.385.154.77.31 1.154.387.385.077.693.077 1.077.077.385 0 .692 0 1.077-.077.385-.078.77-.155 1.154-.388h.077c.615-.232 1.077-.465 1.461-.62.308-.155.616-.31.847-.542.23-.155.384-.31.538-.388 3.846 1.86 8.692 2.713 12.692.93.462-.232.462-.775.077-1.085a1.608 1.608 0 0 0-.461-.31c-.77-.62-1.462-1.24-2.154-1.86C90 52.87 88.615 50.08 88.23 46.825c-.077-.543-.077-1.085-.154-1.628 0-.387-.077-.852-.077-1.24-.154-1.55-.385-3.1-.615-4.572 0-.233-.077-.465-.154-.62-.308-1.318-.846-2.48-1.846-3.41-4.231-3.953-10.616-4.495-15.462-1.473-1.538.93-2.692 2.17-3.385 3.72a5.172 5.172 0 0 0-.461 1.55c-.385 1.628-.539 3.333-.692 4.96 0 .31-.077.698-.077 1.008 0 .465-.077 1.007-.077 1.472 0 .465-.077.93-.154 1.318-.615 2.867-1.846 5.27-3.77 7.207A19.632 19.632 0 0 1 59 57.132c-1.615 1.008 1.538 1.938 2.462 2.17zM30.692 47.135c0 .62.154 1.163.231 1.783.154 1.317.77 2.635 2.077 3.255.23.232.462.464.538.774.77 2.945 2.231 5.348 4.616 6.976.308.232.615.387.923.542.385.233.923.465 1.538.698 0 0 .077 0 .077.077.385.155.846.31 1.231.388.385.077.77.077 1.154.077.385 0 .77 0 1.154-.077a7.52 7.52 0 0 0 1.23-.388s.077 0 .077-.077a11.207 11.207 0 0 0 1.616-.698c.308-.155.615-.387.923-.543 1.23-.852 2.308-1.937 3.077-3.254.384-.62.692-1.318 1-2.093.308-.697.308-1.473.77-2.015.384-.465.845-.775 1.23-1.162.77-.698 1-1.55 1.154-2.558.077-.62.23-1.163.23-1.782v-.93-.155c0-.62-.307-1.473-1-1.705-.307-.078-.692.077-.846-.31-.077-.233.077-.775.077-1.008.077-.542.077-1.162.231-1.705a21.06 21.06 0 0 0 .462-3.177C54.615 34.813 53 32.1 50 30.783a5.317 5.317 0 0 0-1-.388c-1.923-.697-3.923-1.085-5.923-1.085h-1.308c-1.384.078-2.923.233-4.23.853-.154.077-.231.155-.385.232-.462.31-.846.698-1.23 1.24-.309.465-.462.775-.924 1.163-.385.31-.77.62-1.23.775-.385.155-.77.465-1 .852-.462.853-.616 1.783-.693 2.713-.077 1.162 0 2.325.077 3.487 0 .387.077.852.154 1.24.154.62.23 1.24.23 1.86 0 .232-.076.31-.23.388h-.154c-.23 0-.462 0-.692.077-.693.155-1.077 1.008-1 1.705v.155c.23.465.23.775.23 1.085z"/>
        </g>
    </g>
</svg>
