<svg xmlns="http://www.w3.org/2000/svg" width="120" height="120" viewBox="0 0 120 120">
    <g fill="none" fill-rule="evenodd">
        <g>
            <circle cx="60" cy="60" r="60" fill="#14B690"/>
            <circle cx="60" cy="60" r="57.5" stroke="#14B690" stroke-width="5"/>
        </g>
        <g fill="#FFF" fill-rule="nonzero" transform="translate(32 17)">
            <ellipse cx="27.853" cy="21.999" rx="7.41" ry="7.436" transform="rotate(-76.891 27.853 22)"/>
            <path d="M38.552 55.313c-.62-.41-1.217-.782-1.79-1.119V34.463a23.316 23.316 0 0 0 2.357-3.56c1.452-2.68 2.918-6.568 2.92-11.343.013-5.42-1.949-11.883-7.53-18.605A2.63 2.63 0 0 0 30.8.61a2.65 2.65 0 0 0-.344 3.724c4.912 5.962 6.298 11.06 6.313 15.226 0 3.67-1.132 6.698-2.28 8.82a18.593 18.593 0 0 1-1.534 2.389H22.752a18.581 18.581 0 0 1-1.641-2.59c-1.11-2.112-2.174-5.062-2.172-8.619.014-4.166 1.4-9.263 6.313-15.225A2.652 2.652 0 0 0 24.908.61a2.63 2.63 0 0 0-3.711.345c-5.582 6.722-7.544 13.184-7.53 18.605.002 4.776 1.468 8.662 2.92 11.344a23.254 23.254 0 0 0 2.357 3.56v19.73c-.573.337-1.17.708-1.79 1.12C12.3 58.53 6.152 64.143.576 73.595a4.14 4.14 0 0 0 1.443 5.662 4.113 4.113 0 0 0 5.642-1.448c4.965-8.4 10.172-13.034 14.036-15.602 1.932-1.282 3.532-2.044 4.6-2.476.535-.215.936-.348 1.178-.422.121-.036.203-.058.241-.068l.007-.002c.044-.01.087-.025.13-.036.045.012.088.027.134.037.05.013.191.05.425.126 2.114.715 11.212 4.23 19.633 18.443a4.114 4.114 0 0 0 3.547 2.026c.714 0 1.436-.186 2.095-.577a4.142 4.142 0 0 0 1.443-5.662c-5.576-9.453-11.722-15.068-16.578-18.284z"/>
        </g>
    </g>
</svg>
