<svg xmlns="http://www.w3.org/2000/svg" width="120" height="120" viewBox="0 0 120 120">
    <g fill="none" fill-rule="evenodd">
        <circle cx="60" cy="60" r="60" fill="#14B690"/>
        <g fill="#FFF" fill-rule="nonzero">
            <path d="M90 41.403L82.355 34.7 74.71 28l-7.645 6.701-7.644 6.702h8.366C64.969 58.796 48.982 72.327 30.789 69.45c-.8-.126-1.124.957-.338 1.231 22.641 7.921 48.725-5.093 52.498-29.278H90z"/>
            <path d="M73 64a41.468 41.468 0 0 1-8 5.828V92h8V64zM54 92h8V72a43.828 43.828 0 0 1-8 2.533V92zM77 92h8V44h-.202c-1.255 6.126-3.98 11.67-7.798 16.354V92zM38 73.942A44.149 44.149 0 0 1 30 72v19h8V73.942zM41 92h8V75c-1.82.223-3.673.34-5.557.34-.817 0-1.631-.03-2.443-.075V92z"/>
        </g>
    </g>
</svg>
