<svg xmlns="http://www.w3.org/2000/svg" width="120" height="120" viewBox="0 0 120 120">
    <g fill="none" fill-rule="evenodd">
        <circle cx="60" cy="60" r="60" fill="#14B690"/>
        <path fill="#FFF" fill-rule="nonzero" d="M79.2 70.294v-5.231c0-4.726-3.74-8.438-8.5-8.438s-8.5 3.712-8.5 8.438v12.656c0 3.206-2.72 5.906-5.95 5.906s-5.95-2.7-5.95-5.906V73.5H52v-5.231a5.19 5.19 0 0 1 3.06-4.725c.85-.338 1.53-.844 2.21-1.35l2.72-1.856-1.19-1.688c2.21-2.362 3.4-5.4 3.4-8.775v-13.5h-5.1V33h-3.4v10.125h3.4V39.75h1.7v10.125c0 2.194-.68 4.219-1.87 5.906l-.68-.843-2.72 1.856a8.487 8.487 0 0 1-9.69 0l-2.89-1.856-.68.843a10.178 10.178 0 0 1-1.87-5.906V39.75h1.7v3.375h3.4V33h-3.4v3.375H35v13.5c0 3.375 1.19 6.413 3.23 8.775l-1.19 1.688 2.72 1.856c.68.506 1.53.843 2.21 1.35 2.04.844 3.23 2.7 3.23 4.725V73.5h1.7v4.219C46.9 82.78 51.15 87 56.25 87s9.35-4.219 9.35-9.281V65.063c0-2.87 2.21-5.063 5.1-5.063 2.89 0 5.1 2.194 5.1 5.063v5.23c-3.91.844-6.8 4.22-6.8 8.27C69 83.287 72.74 87 77.5 87s8.5-3.712 8.5-8.438c0-4.05-2.89-7.424-6.8-8.268zm-1.7 11.644c-1.87 0-3.4-1.52-3.4-3.376 0-1.856 1.53-3.374 3.4-3.374 1.87 0 3.4 1.518 3.4 3.374 0 1.857-1.53 3.376-3.4 3.376z"/>
    </g>
</svg>
