<svg xmlns="http://www.w3.org/2000/svg" width="120" height="120" viewBox="0 0 120 120">
    <g fill="none" fill-rule="evenodd">
        <circle cx="60" cy="60" r="60" fill="#14B690"/>
        <g fill="#FFF" fill-rule="nonzero">
            <path d="M42.386 54.71c-3.409-.983-6.988 1.417-6.988 4.908-.398 2.455.568 4.746 3.409 5.618 2.84.873 6.08-.545 7.216-3.218 1.193-2.945-.398-6.382-3.637-7.309zM61.534 54.71c-3.409-.983-6.989 1.417-6.989 4.908-.397 2.455.569 4.746 3.41 5.618 2.84.873 6.08-.545 7.215-3.218 1.194-2.945-.397-6.382-3.636-7.309zM80.682 54.71c-3.41-.983-6.989 1.417-6.989 4.908-.398 2.455.568 4.746 3.41 5.618 2.84.873 6.079-.545 7.215-3.218 1.193-2.945-.34-6.382-3.636-7.309z"/>
        </g>
    </g>
</svg>
