<svg xmlns="http://www.w3.org/2000/svg" width="120" height="120" viewBox="0 0 120 120">
    <g fill="none" fill-rule="evenodd">
        <circle cx="60" cy="60" r="60" fill="#14B690"/>
        <path fill="#FFF" fill-rule="nonzero" d="M69.707 32.292v6.686h3.347v-6.686h-3.347zm-8.396 3.447l-2.354 2.377 4.734 4.728 2.354-2.377-4.734-4.728zm20.14 0l-4.735 4.728 2.354 2.377 4.734-4.728-2.354-2.377zm-10.07 4.885c-4.14 0-7.533 3.414-7.533 7.548 0 4.135 3.392 7.523 7.532 7.523 4.14 0 7.533-3.388 7.533-7.523 0-4.134-3.392-7.548-7.533-7.548zM55.477 46.5v3.343h6.696V46.5h-6.696zm25.109 0v3.343h6.696V46.5h-6.696zm-16.896 6.974l-4.734 4.727 2.354 2.377 4.734-4.728-2.354-2.376zm15.379 0l-2.354 2.376 4.734 4.728 2.354-2.377-4.734-4.727zm-53.88 1.28c-.875.548-1.606 1.55-2.275 3.108-.26.406-.07 1.027.374 1.218.444.192 1.027-.097 1.143-.565.587-1.368 1.216-2.038 1.674-2.325.459-.287.767-.27 1.151-.13.7.303 1.091.779 1.439 1.358.006.433.402.824.837.824.434 0 .83-.39.837-.824.275-.659.91-1.029 1.438-1.359.384-.139.692-.156 1.15.131.46.287 1.088.957 1.675 2.325.117.468.7.757 1.143.565.445-.19.635-.812.374-1.218-.669-1.558-1.4-2.56-2.276-3.109a3.05 3.05 0 0 0-2.641-.287c-.734.266-1.28.773-1.7 1.254-.42-.48-.966-.988-1.7-1.254-.968-.33-1.832-.06-2.642.287zm16.74 0c-.875.548-1.607 1.55-2.275 3.108-.261.406-.071 1.027.373 1.218.444.192 1.027-.097 1.144-.565.587-1.368 1.215-2.038 1.673-2.325.459-.287.767-.27 1.151-.13.7.303 1.092.779 1.439 1.358.006.433.402.824.837.824.434 0 .83-.39.837-.824.275-.659.91-1.029 1.438-1.359.384-.139.693-.156 1.151.131.458.287 1.087.957 1.674 2.325.117.468.7.757 1.144.565.444-.19.634-.812.373-1.218-.669-1.558-1.4-2.56-2.276-3.109a3.05 3.05 0 0 0-2.641-.287c-.734.266-1.28.773-1.7 1.254-.42-.48-.966-.988-1.7-1.254-.968-.33-1.832-.06-2.642.287zm27.777 2.611v6.687h3.347v-6.687h-3.347zM33.56 61.441c-.875.549-1.607 1.55-2.275 3.108-.261.407-.07 1.028.373 1.219.445.191 1.027-.097 1.144-.566.587-1.368 1.215-2.037 1.674-2.324.458-.288.767-.27 1.15-.131.7.303 1.092.78 1.44 1.358.005.434.402.824.836.824.435 0 .831-.39.837-.824.284-.626.93-1.026 1.439-1.358.384-.14.692-.157 1.15.13.459.288 1.087.957 1.674 2.325.117.469.7.757 1.144.566.444-.191.634-.812.373-1.219-.668-1.557-1.4-2.56-2.275-3.108a3.05 3.05 0 0 0-2.642-.287c-.734.266-1.28.773-1.7 1.253-.42-.48-.966-.987-1.7-1.253-.968-.331-1.832-.06-2.642.287zm5.18 10.97c-3.086-.224-5.751 2.47-8.37 2.508-2.969-.19-5.755-1.648-8.37-1.672v3.343c2.976.146 5.758 1.646 8.37 1.672 3.079.185 5.74-2.473 8.37-2.508 3.114.597 5.543 3.291 8.369 3.344 3.258.336 5.64-3.293 8.37-3.344 3.114.597 5.543 3.291 8.369 3.344 3.258.336 5.64-3.293 8.37-3.344 3.114.597 5.543 3.291 8.369 3.344 3.258.336 5.64-3.293 8.37-3.344 3.114.597 5.544 3.291 8.37 3.344v-3.344c-3.101-.636-5.542-3.291-8.37-3.343-3.265-.372-5.654 3.29-8.37 3.343-3.1-.636-5.541-3.291-8.37-3.343-3.264-.372-5.653 3.29-8.37 3.343-3.1-.636-5.54-3.291-8.369-3.343-3.264-.372-5.653 3.29-8.37 3.343-3.1-.636-5.54-3.291-8.369-3.343zm1.673 8.358c-3.085-.224-5.75 2.47-8.37 2.508-2.968-.19-5.754-1.647-8.37-1.672v3.343c2.977.146 5.76 1.646 8.37 1.672 3.08.185 5.74-2.472 8.37-2.507 3.114.596 5.544 3.29 8.37 3.343 3.258.336 5.639-3.293 8.37-3.343 3.114.596 5.543 3.29 8.369 3.343 3.258.336 5.64-3.293 8.37-3.343 3.114.596 5.543 3.29 8.369 3.343 3.258.336 5.64-3.293 8.37-3.343 3.114.596 5.544 3.29 8.369 3.343v-3.343c-3.1-.637-5.54-3.292-8.37-3.344-3.264-.372-5.653 3.29-8.37 3.344-3.1-.637-5.54-3.292-8.369-3.344-3.264-.372-5.653 3.29-8.37 3.344-3.1-.637-5.54-3.292-8.369-3.344-3.264-.372-5.653 3.29-8.37 3.344-3.1-.637-5.54-3.292-8.369-3.344z"/>
    </g>
</svg>
