<?xml version="1.0" encoding="UTF-8"?>
<svg width="40px" height="40px" viewBox="0 0 40 40" version="1.1" xmlns="http://www.w3.org/2000/svg" xmlns:xlink="http://www.w3.org/1999/xlink">
    <g stroke="none" stroke-width="1" fill="none" fill-rule="evenodd">
        <g transform="translate(-315.000000, -3839.000000)">
            <rect fill="#FFFFFF" x="0" y="0" width="740" height="3921"></rect>
            <g transform="translate(315.000000, 3839.000000)">
                <g>
                    <circle fill="#14B690" cx="20" cy="20" r="20"></circle>
                    <g transform="translate(11.000000, 12.000000)" fill="#FFFFFF">
                        <path d="M0.166825635,12.2824899 C2.73358509,17.4160088 8.97589402,19.4967785 14.109413,16.9300191 C16.1205868,15.9244323 17.7513554,14.2936637 18.7569422,12.2824899 C19.1464251,11.5035238 18.8306868,10.5563087 18.0517207,10.1668256 C17.2727546,9.77734263 16.3255395,10.0930809 15.9360564,10.872047 C15.2356474,12.2728652 14.0997883,13.4087243 12.6989701,14.1091333 C9.12338348,15.8969266 4.77550473,14.4476339 2.98771139,10.872047 C2.59822834,10.0930809 1.65101316,9.77734263 0.872047065,10.1668256 C0.0930809847,10.5563087 -0.222657413,11.5035238 0.166825635,12.2824899 Z" id="Path"></path>
                        <path d="M2.36538462,4.73076923 C3.67175046,4.73076923 4.73076923,3.67175043 4.73076923,2.36538462 C4.73076923,1.05901877 3.67175046,0 2.36538462,0 C1.05901877,0 0,1.05901877 0,2.36538462 C0,3.67175043 1.05901877,4.73076923 2.36538462,4.73076923 Z" stroke="#FFFFFF"></path>
                        <path d="M16.3653846,4.73076923 C17.6717504,4.73076923 18.7307692,3.67175043 18.7307692,2.36538462 C18.7307692,1.05901877 17.6717504,0 16.3653846,0 C15.0590188,0 14,1.05901877 14,2.36538462 C14,3.67175043 15.0590188,4.73076923 16.3653846,4.73076923 Z" stroke="#FFFFFF"></path>
                    </g>
                </g>
            </g>
        </g>
    </g>
</svg>