<svg xmlns="http://www.w3.org/2000/svg" width="120" height="120" viewBox="0 0 120 120">
    <g fill="none" fill-rule="evenodd">
        <circle cx="60" cy="60" r="60" fill="#14B690"/>
        <circle cx="60" cy="60" r="57.5" stroke="#14B690" stroke-width="5"/>
        <g fill="#FFF" fill-rule="nonzero">
            <path d="M59 36.914c0-4.638-4.093-8.894-9.102-9.751-5.009-.858-10.27 1.746-11.93 6.087-.419 1.115-1.359 4.225-.79 11.069.35 4.365 3.746 7.894 8.146 8.465 4.326.935 8.728-1.233 10.57-5.207C58.827 41.334 59.009 38.1 59 36.914zM47.563 78.837c-1.848-1.14-4.156-2.912-4.678-4.941a6.573 6.573 0 0 1 4.585-7.923l.553-.125c.028-.293.072-.585.133-.874a8.369 8.369 0 0 1 2.667-4.472 11.506 11.506 0 0 1 4.296-2.404 12.09 12.09 0 0 1 3.579-.539c.435.003.87.029 1.302.078a4.543 4.543 0 0 0-.702-.975c-1.56-1.608-5.31-2.607-7.438-2.662a11.094 11.094 0 0 1-6.48 1.64c-2.28.131-4.544-.44-6.487-1.64-2.144.055-5.895 1.07-7.478 2.7C27.384 60.885 24.18 81.31 24 88h21.053c.35-4.051 1.2-7.025 2.604-9.117a.78.78 0 0 0-.094-.046zM95 88c-.15-5.55-1.767-24.405-4.755-28.675-1.799-2.56-5.888-4.255-8.662-4.325a10.993 10.993 0 0 1-6.284 1.561c-2.207.122-4.4-.423-6.284-1.561-2.378.055-4.367 1.296-6.015 3.24 1.11.363 2.157.889 3.106 1.561a8.702 8.702 0 0 1 3.559 5.153c.062.286.107.575.134.866l.579.133c3.462.972 5.514 4.477 4.636 7.916-.523 2.03-2.869 3.802-4.755 4.942l-.127.047c1.427 2.116 2.283 5.098 2.647 9.142H95z"/>
            <path d="M70.894 53.89c2.724 1.211 3.417 1.29 5.548.902a9.664 9.664 0 0 0 4.886-2.375c3.308-.46 9.702-3.223 11.672-5.052-4.232-1.956-8.895-9.946-10.103-12.765-1.734-3.916-5.796-6.159-9.925-5.48-5.956.84-9.287 4.997-9.149 9.36.146 4.704-.261 14.254-.823 16.02 2.645.079 5.29-.126 7.894-.61zM66.001 78.008a10.781 10.781 0 0 1-6.52 2.036A10.773 10.773 0 0 1 52.966 78c-.71.234-1.36.619-1.907 1.128-.154.16-.298.33-.431.509-1.381 1.817-2.064 4.526-2.354 7.29A43.453 43.453 0 0 0 48 91h23c-.11-4.166-.675-9.311-3.139-11.896a5.064 5.064 0 0 0-1.86-1.096z"/>
            <path d="M48.635 71.739a3.902 3.902 0 0 1 1.001-1.26c.254-.222.54-.405.847-.54.039.235.085.47.139.72.154.783.354 1.565.631 2.512.038.125.085.25.13.376.117.312.256.616.417.908.084.14.17.29.261.422.198.278.417.54.655.783.115.117.223.235.346.344.124.11.262.235.4.337.289.223.592.424.91.602A8.437 8.437 0 0 0 58.505 78c3.704 0 6.222-1.949 7.13-4.445.039-.118.085-.235.123-.36.315-1.063.572-2.142.77-3.232a3.932 3.932 0 0 1 1.848 1.8 7.358 7.358 0 0 1-.085 5.212c1.348-.846 3.28-2.348 3.58-3.53a4.114 4.114 0 0 0-.276-2.794 4.37 4.37 0 0 0-1.24-1.565 4.04 4.04 0 0 0-1.378-.783 7.241 7.241 0 0 0-1.733-.227h-.516a9.543 9.543 0 0 0-.1-2.59 5.813 5.813 0 0 0-1.193-2.434 7.602 7.602 0 0 0-1.31-1.229 6.106 6.106 0 0 0-.7-.47 9.227 9.227 0 0 0-2.394-1.016l-.24-.055A9.257 9.257 0 0 0 58.507 60c-.96.002-1.916.15-2.833.438a8.823 8.823 0 0 0-3.396 1.91 6.138 6.138 0 0 0-1.925 3.216 9.543 9.543 0 0 0-.1 2.59h-.516a7.241 7.241 0 0 0-1.732.228 4.04 4.04 0 0 0-1.379.782 4.37 4.37 0 0 0-1.24 1.565 4.115 4.115 0 0 0-.246 2.802c.308 1.213 2.233 2.685 3.58 3.53a7.357 7.357 0 0 1-.084-5.322z"/>
        </g>
    </g>
</svg>
