<svg xmlns="http://www.w3.org/2000/svg" width="120" height="120" viewBox="0 0 120 120">
    <g fill="none" fill-rule="evenodd">
        <path stroke="#979797" d="M-468.5-160.5h739v841h-739z"/>
        <circle cx="60" cy="60" r="57.5" stroke="#000" stroke-width="5"/>
        <path fill="#000" fill-rule="nonzero" d="M84.012 84.389l-9.435-3.172C70.401 79.816 67.56 76 67.29 71.622a20.48 20.48 0 0 0 2.61-3.191c2.339 1.693 4.446 3.95 6.186 6.655 3.5-5.43 5.646-12.61 5.646-20.512C81.73 37.681 71.987 24 59.98 24S38.23 37.7 38.23 54.574c0 7.901 2.146 15.083 5.645 20.512 1.76-2.724 3.867-4.962 6.187-6.655a20.291 20.291 0 0 0 2.61 3.191c-.271 4.38-3.132 8.194-7.289 9.595l-9.435 3.172C32.991 85.381 31 88.164 31 91.317V97h58v-5.683c-.039-3.153-2.03-5.936-4.988-6.928zM49.096 53.212v-.098c.425.059.85.137 1.295.137a9.402 9.402 0 0 0 6.496-2.608c1.373 3.64 4.834 6.247 8.932 6.247 1.798 0 3.442-.526 4.872-1.382-.85 8.116-5.916 15.94-10.749 15.94-5.259.019-10.846-9.362-10.846-18.236z"/>
    </g>
</svg>
