<svg xmlns="http://www.w3.org/2000/svg" width="120" height="120" viewBox="0 0 120 120">
    <g fill="none" fill-rule="evenodd">
        <circle cx="60" cy="60" r="60" fill="#14B690"/>
        <g fill="#FFF" fill-rule="nonzero" transform="translate(32 27)">
            <path d="M33.15 14.475l3.525 2.1c2.325 1.35 4.125 3.375 5.25 5.775l2.325 5.1 7.2-6c1.35-1.125 3.3-.975 4.5.3 1.2 1.35 1.05 3.45-.3 4.65l-8.925 7.5C44.85 35.475 42 35.175 40.5 33.225l-4.65-6.15-6.375 9.6 7.275 5.475a6.449 6.449 0 0 1 2.1 7.65L33.3 62.7c-.9 2.025-3.3 2.85-5.25 1.875-1.725-.9-2.475-3.075-1.725-4.875l4.95-10.95L20.1 40.8c-3.375-2.4-4.275-6.975-2.175-10.5l6.45-10.575-9.225 1.8-6.975 6.225c-1.65.975-3.75.45-4.8-1.2a3.533 3.533 0 0 1 1.275-5.025l7.8-6.45c.45-.225.9-.45 1.35-.525l9.525-1.5c3.375-.825 6.9-.375 9.825 1.425z"/>
            <path d="M17.625 41.325l7.2 4.65-1.95 8.1a7.122 7.122 0 0 1-3.675 4.5l-13.95 6.75c-1.725.825-3.825.075-4.725-1.65C-.3 61.95.375 59.85 2.1 59.025l13.125-6.75 2.4-10.95z"/>
            <circle cx="39.225" cy="7.35" r="6.975"/>
        </g>
    </g>
</svg>
