<svg xmlns="http://www.w3.org/2000/svg" width="120" height="120" viewBox="0 0 120 120">
    <g fill="none" fill-rule="evenodd">
        <circle cx="60" cy="60" r="60" fill="#14B690"/>
        <circle cx="60" cy="60" r="57.5" stroke="#14B690" stroke-width="5"/>
        <g fill="#FFF" fill-rule="nonzero">
            <path d="M52.024 23A9 9 0 1 0 61 32a9.008 9.008 0 0 0-8.976-9zm0 14.093a5.1 5.1 0 1 1 0-10.201 5.1 5.1 0 0 1 0 10.2zM71 23a9 9 0 1 0 9 9 9.008 9.008 0 0 0-9-9zM34.933 70.638a4.252 4.252 0 0 0 7.195-.866v22.323c.004 3.26 2.639 5.9 5.89 5.905h7.729a5.9 5.9 0 0 0 5.498-3.898A5.9 5.9 0 0 0 66.743 98h7.728c3.252-.004 5.887-2.646 5.89-5.905V84.7h4.226a1.962 1.962 0 0 0 1.547-.76 1.972 1.972 0 0 0 .354-1.689L82.561 66.74a5.349 5.349 0 0 0 3.669-2.512 5.374 5.374 0 0 0 .51-4.425l-2.121-6.567a14.752 14.752 0 0 0-9.71-9.583 14.705 14.705 0 0 0-13.397 2.497A14.617 14.617 0 0 0 52.425 43h-1.17c-6.917-.032-12.913 4.791-14.382 11.567L34.11 67.024a4.252 4.252 0 0 0 .824 3.614zm37.7 14.063h3.865v7.394c0 1.087-.88 1.968-1.964 1.968h-1.893l-.008-9.362zm-7.79 0h3.863v9.362h-1.885a1.966 1.966 0 0 1-1.963-1.968l-.016-7.394zM40.705 55.425c1.08-4.968 5.477-8.503 10.548-8.48h1.241c2.258.006 4.457.725 6.284 2.055a14.833 14.833 0 0 0-2.16 4.228l-2.12 6.567a5.192 5.192 0 0 0 .785 4.685 5.678 5.678 0 0 0 3.078 2.134l-3.589 15.677a1.972 1.972 0 0 0 .378 1.669c.374.469.94.742 1.538.74h1.022v7.395c0 1.087-.88 1.968-1.964 1.968h-1.9V73.976c0-1.087-.88-1.968-1.964-1.968a1.966 1.966 0 0 0-1.964 1.968v20.087h-1.908a1.966 1.966 0 0 1-1.964-1.968V54.654v-.158a1.956 1.956 0 0 0-3.849-.661l-3.652 14.22a.33.33 0 0 1-.33.252.322.322 0 0 1-.259-.126.331.331 0 0 1-.063-.291l2.812-12.465z"/>
        </g>
    </g>
</svg>
