<svg xmlns="http://www.w3.org/2000/svg" width="120" height="120" viewBox="0 0 120 120">
    <g fill="none" fill-rule="evenodd">
        <path stroke="#979797" d="M-309.5-559.5h739v1049h-739z"/>
        <g>
            <circle cx="60" cy="60" r="57.5" stroke="#000" stroke-width="5"/>
            <g fill="#000" fill-rule="nonzero">
                <path d="M67.7 44.556c-.608 0-1.1-.498-1.1-1.112V29H39.1c-.607 0-1.1.498-1.1 1.111V87.89c0 .614.493 1.111 1.1 1.111h41.8c.608 0 1.1-.497 1.1-1.111V44.556H67.7zm-22-4.445H49v-3.333c0-.614.493-1.111 1.1-1.111.607 0 1.1.497 1.1 1.11v3.334h3.3c.607 0 1.1.498 1.1 1.111 0 .614-.493 1.111-1.1 1.111h-3.3v3.334c0 .613-.493 1.11-1.1 1.11-.607 0-1.1-.497-1.1-1.11v-3.334h-3.3c-.607 0-1.1-.497-1.1-1.11 0-.614.493-1.112 1.1-1.112zM49 77.684V79c0 .614-.493 1.111-1.1 1.111-.608 0-1.1-.498-1.1-1.111v-1.111h-1.1c-.607 0-1.1-.498-1.1-1.112 0-.614.493-1.11 1.1-1.11h2.2c.606 0 1.1-.497 1.1-1.11 0-.614-.494-1.111-1.1-1.111-1.82-.002-3.3-1.498-3.3-3.335 0-1.447.922-2.668 2.2-3.128v-1.316c0-.615.493-1.111 1.1-1.111.607 0 1.1.496 1.1 1.11v1.112h1.1c.607 0 1.1.496 1.1 1.11 0 .615-.493 1.112-1.1 1.112h-2.2c-.606 0-1.1.498-1.1 1.111s.494 1.111 1.1 1.111c1.82.001 3.3 1.498 3.3 3.335a3.324 3.324 0 0 1-2.2 3.127zm25.3 2.427H54.5c-.607 0-1.1-.497-1.1-1.111s.493-1.111 1.1-1.111h19.8c.608 0 1.1.497 1.1 1.111s-.492 1.111-1.1 1.111zm0-4.444H54.5c-.607 0-1.1-.497-1.1-1.111 0-.615.493-1.112 1.1-1.112h19.8c.608 0 1.1.497 1.1 1.112 0 .614-.492 1.11-1.1 1.11zm0-4.445H54.5c-.607 0-1.1-.496-1.1-1.11 0-.615.493-1.112 1.1-1.112h19.8c.608 0 1.1.497 1.1 1.111 0 .615-.492 1.111-1.1 1.111zm0-4.444H54.5c-.607 0-1.1-.497-1.1-1.111 0-.615.493-1.111 1.1-1.111h19.8c.608 0 1.1.496 1.1 1.11 0 .615-.492 1.112-1.1 1.112zm0-4.445H45.7c-.607 0-1.1-.496-1.1-1.11 0-.615.493-1.112 1.1-1.112h28.6c.608 0 1.1.497 1.1 1.111 0 .615-.492 1.111-1.1 1.111zm0-4.444H45.7c-.607 0-1.1-.498-1.1-1.111 0-.614.493-1.111 1.1-1.111h28.6c.608 0 1.1.497 1.1 1.11 0 .614-.492 1.112-1.1 1.112zm0-4.445H45.7c-.607 0-1.1-.497-1.1-1.11 0-.614.493-1.112 1.1-1.112h28.6c.608 0 1.1.498 1.1 1.111 0 .614-.492 1.111-1.1 1.111z"/>
                <path d="M68.8 29.651v12.682h12.555z"/>
            </g>
        </g>
    </g>
</svg>
